<svg viewBox="0 0 363.46 112.57" xmlns="http://www.w3.org/2000/svg"><g fill="#2a2d2e"><path d="m144.61 112.57h-15.8c-6.66 0-10.05-1.51-12.47-4.78-2.6-3.51-2.6-8.84-2.6-13.87v-93.86h20.35v96.89c0 7.69.79 13.14 10.54 15.32v.3z"/><path d="m103.01 112.57h-25.43l-18.71-41.24c-10.23 5.63-16.05 18.65-26.4 27.25-5.27 4.42-11.44 8.3-19.14 10.96-3.45 1.21-9.39 2.72-11.63 2.97-.97.12-1.57.06-1.7-.3-.06-.3.12-.48 1.15-.97 1.15-.54 5.81-2.54 8.72-4.6 3.63-2.6 5.75-5.39 5.93-7.57-.97-3.57-8.17-11.57-.85-26.16 2.6-5.27 4.9-9.02 6.48-12.84 1.88-4.36 3.21-10.48 3.63-15.08q.06-.3.24-.12c3.57 3.69 17.38 18.05 15.38 32.4 4.6-1.82 12.53-7.27 16.23-10.11 3.88-3.09 6.42-6.24 10.54-6.3 3.63-.06 4 1.76 6.9 2.12.73.12 1.82-.06 2.36-.3.24-.12.18-.36-.18-.48-4-.97-4.97-4.24-10.11-4.24-4.6 0-8.3 4.3-10.96 6.12l-13.08-27.61c-5.45-11.57-3.81-19.92 8.24-36.45l52.38 112.57z"/><path d="m183.43 112.57h-15.8c-6.66 0-10.05-1.51-12.47-4.78-2.6-3.51-2.6-8.84-2.6-13.87v-93.86h20.35v96.89c0 7.69.79 13.14 10.54 15.32v.3z"/><path d="m207.77 27.07h-7.51l-1.03 2.42h-4l8.05-18.59h1.51l8.05 18.59h-4l-1.09-2.42zm-3.69-9.33-2.42 6.24h4.84z"/><path d="m233.15 11.81c1.39.85 2.54 1.94 3.33 3.39l-2.85 2c-1.33-2.06-3.03-3.09-5.27-3.09-1.7 0-3.09.54-4.24 1.7-1.15 1.15-1.7 2.6-1.7 4.42s.54 3.27 1.7 4.36c1.15 1.15 2.54 1.7 4.24 1.7 2.24 0 3.94-1.03 5.27-3.09l2.85 2c-.79 1.45-1.88 2.54-3.33 3.39s-3.03 1.21-4.78 1.21c-2.79 0-5.09-.91-6.9-2.72-1.88-1.82-2.79-4.12-2.79-6.9s.97-4.97 2.85-6.84c1.88-1.82 4.18-2.72 6.9-2.72 1.76 0 3.33.42 4.72 1.21z"/><path d="m258.15 11.81c1.39.85 2.54 1.94 3.33 3.39l-2.85 2c-1.33-2.06-3.03-3.09-5.27-3.09-1.7 0-3.09.54-4.24 1.7-1.15 1.15-1.7 2.6-1.7 4.42s.54 3.27 1.7 4.36c1.15 1.15 2.54 1.7 4.24 1.7 2.24 0 3.94-1.03 5.27-3.09l2.85 2c-.79 1.45-1.88 2.54-3.33 3.39s-3.03 1.21-4.78 1.21c-2.79 0-5.09-.91-6.9-2.72-1.88-1.82-2.79-4.12-2.79-6.9s.97-4.97 2.85-6.84c1.88-1.82 4.18-2.72 6.9-2.72 1.76 0 3.33.42 4.72 1.21z"/><path d="m285.28 13.38c1.88 1.82 2.85 4.12 2.85 6.84s-.97 4.97-2.85 6.9c-1.88 1.82-4.18 2.72-6.9 2.72s-5.03-.91-6.84-2.72c-1.88-1.82-2.85-4.12-2.85-6.9s.97-4.97 2.85-6.84c1.88-1.82 4.18-2.72 6.84-2.72 2.66-.06 4.97.85 6.9 2.72zm-11.08 2.42c-1.15 1.15-1.7 2.6-1.7 4.42s.54 3.27 1.7 4.42c1.09 1.15 2.54 1.7 4.24 1.7s3.09-.54 4.18-1.7c1.15-1.15 1.7-2.6 1.7-4.42s-.54-3.27-1.7-4.42c-1.15-1.15-2.54-1.7-4.18-1.7-1.76 0-3.15.54-4.24 1.7z"/><path d="m308.17 29.49-4.72-6.54h-2.79v6.54h-3.75v-18.59h6.84c1.94 0 3.51.54 4.72 1.63s1.88 2.54 1.88 4.36c0 1.21-.24 2.24-.85 3.09-.61.91-1.33 1.57-2.36 2.12l5.21 7.33h-4.18zm-7.51-9.87h3.09c.85 0 1.51-.24 2.06-.73.48-.48.73-1.15.73-1.94s-.24-1.39-.79-1.94c-.48-.48-1.15-.73-2.06-.73h-3.09l.06 5.33z"/><path d="m198.99 66.67h7.99v3.45h-11.75v-18.59h3.75v15.14z"/><path d="m218.49 70.12h-3.75v-18.59h3.75z"/><path d="m243.74 51.53-7.99 18.59h-1.51l-8.05-18.59h4.24l4.54 11.26 4.54-11.26h4.24z"/><path d="m263.73 54.92h-8.6v3.75h6.3v3.27h-6.3v4.72h8.9v3.45h-12.66v-18.59h12.35v3.39z"/><path d="m198.99 108.45h7.99v3.45h-11.75v-18.59h3.75v15.14z"/><path d="m218.49 111.9h-3.75v-18.59h3.75z"/><path d="m246.04 93.25v18.59h-3.75v-9.93l-4.6 5.87h-1.21l-4.6-5.87v9.93h-3.75v-18.59h1.45l7.51 9.75 7.51-9.75h1.45z"/><path d="m259.43 111.9h-3.75v-18.59h3.75z"/><path d="m282.5 96.71h-5.87v15.14h-3.75v-15.14h-5.87v-3.39h15.5v3.39z"/><path d="m293.94 108.45h7.99v3.45h-11.75v-18.59h3.75v15.14z"/><path d="m322.04 96.71h-8.6v3.75h6.3v3.27h-6.3v4.72h8.9v3.45h-12.66v-18.59h12.35v3.39z"/><path d="m339.96 93.92c1.03.67 1.82 1.51 2.42 2.54l-2.54 2c-.97-1.39-2.12-2.18-3.45-2.18-.61 0-1.15.12-1.63.48-.42.3-.61.73-.61 1.33 0 .48.18.85.48 1.15s.85.61 1.7.97l2.06.91c1.51.67 2.66 1.45 3.45 2.3.73.85 1.15 1.88 1.15 3.09 0 1.7-.61 3.03-1.82 4.06s-2.72 1.51-4.6 1.51c-1.51 0-2.97-.36-4.18-1.09s-2.24-1.76-2.91-2.97l2.6-2c1.27 1.82 2.72 2.72 4.48 2.72.79 0 1.45-.18 1.88-.54s.67-.85.67-1.51c0-.36-.06-.67-.3-1.03-.24-.3-.42-.48-.73-.67-.3-.12-.67-.36-1.33-.67l-2-.91c-1.45-.67-2.54-1.39-3.27-2.24-.79-.85-1.15-1.88-1.15-3.09 0-1.57.61-2.85 1.7-3.81 1.15-.97 2.6-1.45 4.36-1.45 1.33.12 2.6.42 3.57 1.09z"/><path d="m360.43 93.92c1.03.67 1.82 1.51 2.42 2.54l-2.54 2c-.97-1.39-2.12-2.18-3.45-2.18-.61 0-1.15.12-1.63.48-.42.3-.61.73-.61 1.33 0 .48.18.85.48 1.15s.85.61 1.7.97l2.06.91c1.51.67 2.66 1.45 3.45 2.3.73.85 1.15 1.88 1.15 3.09 0 1.7-.61 3.03-1.82 4.06s-2.72 1.51-4.6 1.51c-1.51 0-2.91-.36-4.18-1.09-1.21-.73-2.24-1.76-2.91-2.97l2.6-2c1.27 1.82 2.72 2.72 4.48 2.72.79 0 1.45-.18 1.88-.54s.67-.85.67-1.51c0-.36-.06-.67-.3-1.03-.24-.3-.42-.48-.73-.67-.24-.12-.67-.36-1.33-.67l-2-.91c-1.45-.67-2.54-1.39-3.27-2.24-.79-.85-1.15-1.88-1.15-3.09 0-1.57.61-2.85 1.7-3.81 1.15-.97 2.6-1.45 4.36-1.45 1.33.12 2.54.42 3.57 1.09z"/></g></svg>