<svg viewBox="0 0 389.88 75.15" xmlns="http://www.w3.org/2000/svg"><g fill="#2a2d2e"><path d="m27.05 20.66-.2.09c-1.21-1.1-2.63-1.97-4.16-2.55-1.7-.62-3.5-.92-5.31-.87-1.74-.02-3.47.28-5.11.87-1.49.53-2.86 1.37-4 2.46-1.15 1.16-2.03 2.55-2.6 4.08-.66 1.75-.99 3.61-.98 5.48-.02 2.14.28 4.27.89 6.32.55 1.85 1.46 3.58 2.68 5.08 1.18 1.45 2.68 2.6 4.38 3.38 1.93.86 4.02 1.28 6.12 1.23.85 0 1.69-.09 2.52-.26.84-.17 1.65-.43 2.43-.78.77-.34 1.51-.77 2.2-1.26.68-.49 1.3-1.06 1.85-1.68l.3.14-1.82 4.53c-1.18.45-2.41.78-3.66.98-1.33.23-2.68.34-4.03.34-2.55.03-5.08-.37-7.49-1.18-2.15-.72-4.13-1.86-5.84-3.35-1.63-1.44-2.93-3.22-3.82-5.22-.96-2.14-1.43-4.45-1.4-6.79 0-1.4.18-2.79.55-4.14.35-1.35.87-2.66 1.56-3.88.7-1.23 1.57-2.36 2.57-3.36 1.04-1.04 2.21-1.94 3.49-2.66 1.35-.77 2.8-1.36 4.3-1.76 1.67-.44 3.39-.65 5.11-.64 2.7-.03 5.38.42 7.93 1.31l1.54 4.1z"/><path d="m55.6 47.54v-.09c.01-.11.01-.22 0-.33v-.41c0-.52-.07-1.05-.19-1.56-.18-.71-.42-1.4-.72-2.07l-2.6-5.98c-.83 0-1.93 0-3.3 0h-7.79c-1.04 0-2.01 0-2.93 0l-2.54 5.84-.72 1.79c-.25.63-.37 1.29-.37 1.96-.02.16-.02.32 0 .48.02.09.05.17.09.25v.11h-4.52v-.09c.39-.48.73-1 1-1.56.39-.72.83-1.61 1.31-2.7l12.7-28.15h1.71l12.07 27.2c.28.63.57 1.25.87 1.85.3.59.59 1.14.86 1.56s.5.87.7 1.2c.13.21.27.42.42.62v.06h-6.08.02zm-14.35-12.38h9.95l-6.23-14.02-6.11 14.14h2.4l-.02-.12z"/><path d="m70.2 38.88v3.29c0 .93.05 1.74.14 2.43 0 .68.07 1.24.2 1.7.06.39.15.77.25 1.15v.09h-5.27v-.09c.08-.31.17-.7.25-1.15.08-.46.15-1.02.2-1.7 0-.68.04-1.48.12-2.41v-21c0-.93-.04-1.74-.12-2.43-.05-.68-.12-1.25-.2-1.71-.06-.39-.15-.78-.25-1.17v-.11l.93.09h2.09c.78-.02 1.56-.08 2.34-.2 1.24-.16 2.5-.23 3.75-.22 1.33-.01 2.65.18 3.93.58 1.14.35 2.2.93 3.12 1.68.87.75 1.56 1.69 2.03 2.74.51 1.15.77 2.39.75 3.65.01 1-.13 2-.41 2.96-.26.87-.65 1.7-1.15 2.46-.49.74-1.09 1.4-1.78 1.96-.71.58-1.49 1.06-2.32 1.43l7.79 10.9c.38.55.74 1.02 1.07 1.42.3.36.61.7.95 1.03.27.26.56.5.87.72.27.18.55.33.86.44v.14h-6.43c-.09-.39-.23-.77-.44-1.12-.27-.48-.57-.95-.9-1.39l-7.79-11.04h-3.3c-.43-.03-.85-.08-1.28-.16v5.05zm0-6.71c.4.09.81.15 1.22.19h1.2c1.03.01 2.06-.16 3.04-.5.89-.33 1.69-.86 2.34-1.56.7-.73 1.23-1.59 1.56-2.54.37-1.15.55-2.35.53-3.55.01-1.01-.11-2.03-.37-3.01-.22-.83-.6-1.61-1.12-2.29-.5-.63-1.14-1.13-1.87-1.46-.83-.36-1.73-.54-2.63-.51-.81-.01-1.63.04-2.43.16-.47.07-.92.18-1.37.33v14.66l-.08.09z"/><path d="m98.14 38.88v3.36c0 1.04.05 1.85.14 2.43 0 .68.07 1.24.2 1.7.06.39.15.77.25 1.15v.02h-5.27v-.09c.08-.31.17-.7.25-1.15.08-.46.15-1.02.2-1.7 0-.68.04-1.48.12-2.41v-17.71c0-1.26 0-2.35 0-3.29 0-.93-.04-1.74-.12-2.43-.05-.68-.12-1.25-.2-1.71-.06-.39-.15-.78-.25-1.17v-.11l.93.09h2.01c.78-.02 1.56-.08 2.34-.2 1.24-.16 2.5-.23 3.75-.22 1.33-.01 2.65.18 3.93.58 1.14.35 2.2.93 3.12 1.68.89.74 1.61 1.68 2.09 2.74.51 1.15.77 2.39.75 3.65.01 1-.13 2-.41 2.96-.26.87-.65 1.7-1.15 2.46-.49.75-1.09 1.43-1.78 2.01-.71.58-1.49 1.06-2.32 1.43l7.79 10.9c.38.55.74 1.02 1.07 1.42.3.36.61.7.95 1.03.27.26.56.5.87.72.27.18.55.33.86.44v.09h-6.43c-.09-.39-.23-.77-.44-1.12-.23-.48-.5-.94-.79-1.39l-7.79-11.04h-3.3c-.43-.03-.85-.08-1.28-.16v4.99l-.09.06zm0-6.71c.4.09.81.15 1.22.19h1.2c1.03.01 2.06-.16 3.04-.5.89-.33 1.69-.86 2.34-1.56.7-.73 1.23-1.59 1.56-2.54.37-1.15.55-2.35.53-3.55-.05-.99-.23-1.97-.53-2.91-.22-.83-.6-1.61-1.12-2.29-.5-.63-1.14-1.13-1.87-1.46-.83-.36-1.73-.54-2.63-.51-.81-.01-1.63.04-2.43.16-.47.07-.92.18-1.37.33v14.66h.08z"/><path d="m135.87 15.25c2.33-.03 4.65.38 6.84 1.2 2.01.75 3.86 1.9 5.42 3.38 1.54 1.49 2.75 3.29 3.55 5.28.88 2.15 1.31 4.44 1.28 6.76 0 1.4-.16 2.79-.48 4.14-.3 1.32-.76 2.6-1.37 3.82-.63 1.21-1.41 2.33-2.32 3.35-.91 1.03-1.96 1.92-3.12 2.66-1.22.76-2.53 1.35-3.91 1.74-1.49.43-3.03.65-4.58.64-2.33.03-4.65-.38-6.84-1.18-2.01-.74-3.86-1.88-5.42-3.35-1.54-1.47-2.75-3.25-3.57-5.22-.88-2.14-1.31-4.44-1.28-6.76 0-1.4.16-2.79.48-4.14s.8-2.65 1.43-3.88c.62-1.22 1.4-2.36 2.31-3.38.91-1.03 1.96-1.92 3.12-2.66 1.21-.77 2.52-1.36 3.89-1.76 1.48-.43 3.02-.65 4.56-.64zm1.22 30.98c1.56.03 3.11-.27 4.55-.87 1.35-.58 2.54-1.46 3.51-2.57 1.03-1.21 1.81-2.6 2.29-4.11.57-1.78.85-3.63.83-5.5.02-2.13-.24-4.26-.78-6.32-.46-1.81-1.26-3.52-2.34-5.05-1.01-1.4-2.33-2.55-3.86-3.35-1.68-.81-3.54-1.2-5.41-1.14-1.54-.02-3.08.28-4.5.87-1.34.58-2.54 1.44-3.51 2.54-1.03 1.19-1.81 2.58-2.29 4.08-.57 1.78-.85 3.63-.83 5.5-.01 2.13.25 4.26.78 6.32.45 1.82 1.24 3.54 2.32 5.08 1.01 1.41 2.34 2.57 3.88 3.38 1.67.81 3.51 1.2 5.36 1.14z"/><path d="m163.76 45.6c1.61 0 3.21-.06 4.81-.22 1.46-.15 2.74-.32 3.83-.51 1.17-.19 2.33-.43 3.47-.73l-.64 3.58h-16.14v-.26c.08-.31.17-.7.25-1.15.08-.46.15-1.02.2-1.7.06-.68.11-1.49.14-2.43.03-.95.03-2.04 0-3.29v-14.41c0-1.26 0-2.35 0-3.29 0-.93-.05-1.74-.14-2.43-.06-.69-.13-1.26-.2-1.71-.07-.46-.16-.84-.25-1.15v-.12h5.31v.09c-.1.38-.19.76-.25 1.15-.08.46-.15 1.03-.2 1.71s-.1 1.5-.14 2.43v24.44h-.06z"/><path d="m185.76 45.6c1.61 0 3.21-.06 4.81-.22 1.46-.15 2.74-.32 3.83-.51 1.17-.19 2.33-.43 3.47-.73l-.64 3.58h-16.14v-.26c.08-.31.17-.7.25-1.15.08-.46.15-1.02.2-1.7.06-.68.11-1.49.14-2.43.03-.95.03-2.04 0-3.29v-17.7c0-.93-.05-1.74-.14-2.43-.06-.69-.13-1.26-.2-1.71s-.16-.84-.25-1.15v-.12h5.31v.09c-.1.38-.19.76-.25 1.15-.08.46-.15 1.03-.2 1.71-.05.69-.1 1.5-.14 2.43v24.44h-.06z"/><path d="m253.93 54.03v-.09c.01-.11.01-.22 0-.33 0-.13 0-.27 0-.41 0-.52-.07-1.05-.19-1.56-.18-.71-.42-1.4-.72-2.07l-2.68-6.03h-14.02l-2.54 5.84-.72 1.79c-.24.63-.37 1.29-.37 1.96-.02.16-.02.32 0 .48.02.09.05.17.09.25v.09h-4.52v-.03c.39-.48.73-1 1-1.56.39-.72.83-1.61 1.31-2.7l12.7-28.15h1.78l12 27.14c.28.63.57 1.25.87 1.85.3.59.59 1.14.86 1.56s.5.87.72 1.2c.13.21.27.42.42.62v.09h-5.98v.03zm-14.35-12.38h9.95l-6.23-14.02-6.11 14.14h2.4l-.02-.12z"/><path d="m263.79 22.17h3.77l2.24-.09 2.62-.09h2.55c2.06 0 4.12.26 6.11.79 1.87.5 3.6 1.39 5.09 2.62 1.56 1.28 2.79 2.92 3.58 4.78.92 2.3 1.35 4.77 1.28 7.24.02 1.87-.2 3.72-.67 5.53-.41 1.54-1.05 3-1.9 4.35-.79 1.23-1.77 2.32-2.91 3.22s-2.4 1.65-3.74 2.21c-1.41.59-2.87 1.01-4.38 1.26-1.58.27-3.19.41-4.8.41h-2.13l-2.55-.2-2.38-.12h-1.74v-.14c.1-.38.19-.76.25-1.15.08-.46.16-1.02.22-1.7s.1-1.49.12-2.43c0-.93 0-2.03 0-3.29v-14.43c0-1.26 0-2.36 0-3.32s-.05-1.79-.16-2.51c-.06-.69-.14-1.27-.22-1.74-.06-.39-.15-.78-.25-1.17zm4.84 1.99c0 1.65-.03 3.25-.09 4.8v15.47c0 1.47.03 2.89.09 4.25s.11 2.49.16 3.38l.83.09 1.09.09h2.06c1.04 0 2.08-.08 3.12-.22 1.07-.14 2.11-.4 3.12-.78 1.02-.38 1.98-.91 2.85-1.56.94-.72 1.73-1.6 2.35-2.6.72-1.19 1.24-2.49 1.56-3.85.41-1.73.6-3.51.58-5.3.03-2.04-.25-4.07-.83-6.03-.48-1.64-1.3-3.15-2.4-4.46-1.07-1.22-2.42-2.17-3.93-2.76-1.71-.65-3.54-.97-5.37-.93h-2.91l-1.4.09-.86.3z"/><path d="m317.45 54.03v-.09c.01-.11.01-.22 0-.33 0-.13 0-.27 0-.41 0-.52-.07-1.05-.19-1.56-.18-.71-.42-1.4-.72-2.07l-2.68-6.03h-14.02l-2.54 5.84-.72 1.79c-.24.63-.37 1.29-.37 1.96-.02.16-.02.32 0 .48.02.09.05.17.09.25v.09h-4.52v-.03c.39-.48.73-1 1-1.56.39-.72.83-1.61 1.31-2.7l12.79-28.09h1.78l12.03 27.06c.28.63.57 1.25.87 1.85.3.59.59 1.14.86 1.56s.5.87.72 1.2c.13.21.27.42.42.62v.09h-6.08l-.03.05zm-14.35-12.38h9.95l-6.23-14.02-6.17 14.02z"/><path d="m325.82 53.93c.22-.34.41-.69.56-1.06.23-.56.4-1.16.48-1.76l.55-3.49.62-4.07c.22-1.41.43-2.86.64-4.35s.42-2.95.62-4.39l.58-4.16c.19-1.34.35-2.56.5-3.66s.26-2.07.36-2.9c.09-.82.16-1.44.2-1.85h2.82l13.93 26.05 13.82-26.05h2.1l3.63 26.31c.1.83.21 1.54.33 2.12s.23 1.1.36 1.56c.1.35.21.7.34 1.04.09.23.2.45.33.67v.09h-5.61v-.11c.1-.26.16-.52.2-.79.07-.44.1-.88.09-1.32v-1.25l-2.82-21.22-13.05 24.58-1.56-.17-13.15-24.63c-.52 3.5-.97 6.73-1.36 9.71l-.48 3.8c-.17 1.27-.31 2.45-.44 3.54-.12 1.09-.22 2.06-.3 2.9-.07.83-.11 1.45-.11 1.85v1.32c0 .37 0 .72.09.98s.09.59.12.83h-4.42v-.12h.02z"/><path d="m387.9 27.31h-.48c-.15-.4-.33-.79-.56-1.15-.28-.45-.62-.85-1.01-1.2-1-.89-2.31-1.36-3.65-1.32-.66-.01-1.31.1-1.93.33-.53.2-1.01.52-1.4.93-.38.41-.68.89-.86 1.42-.2.59-.29 1.2-.28 1.82 0 1.1.31 2.19.9 3.12.65 1.03 1.4 1.99 2.24 2.87.9.95 1.88 1.89 2.93 2.84 1.03.93 2.01 1.91 2.93 2.94.87.97 1.62 2.05 2.24 3.19.6 1.1.91 2.34.9 3.6 0 .99-.17 1.97-.5 2.9-.34.96-.87 1.85-1.56 2.6-.75.81-1.66 1.44-2.68 1.87-1.23.51-2.56.75-3.89.72-.81 0-1.61-.08-2.4-.23-.71-.14-1.42-.33-2.1-.58-.59-.21-1.17-.46-1.73-.75-.43-.22-.85-.46-1.25-.73l.51-4.89h.56c.16.7.43 1.36.79 1.98s.82 1.19 1.36 1.67c.55.49 1.18.88 1.85 1.15.72.29 1.49.44 2.27.44.69.01 1.38-.11 2.03-.34.58-.21 1.11-.53 1.56-.95.43-.41.76-.9.98-1.45.23-.58.35-1.21.34-1.84 0-.89-.17-1.77-.51-2.59-.35-.8-.8-1.56-1.34-2.24-.58-.73-1.21-1.42-1.88-2.06l-2.18-2.07c-.74-.68-1.46-1.37-2.17-2.07-.69-.7-1.33-1.46-1.88-2.27-.55-.8-1-1.67-1.34-2.59-.36-1-.53-2.05-.51-3.12-.01-1.08.22-2.14.67-3.12.43-.91 1.04-1.73 1.79-2.4.74-.67 1.6-1.2 2.54-1.56.94-.35 1.93-.53 2.93-.53.68 0 1.37.05 2.04.17.56.1 1.12.24 1.67.42.5.17.93.33 1.29.48l.9.41-.14 4.19z"/><path d="m224.81 0v.19c-.07.21-.21.69-.42 1.43s-.44 1.67-.7 2.77c-.27 1.11-.58 2.36-.92 3.74s-.63 2.81-.87 4.28l-12.03 62.73h-.98l9.77-64.93c.35-1.92.59-3.52.72-4.8.12-1.28.22-2.45.28-3.52v-.92c.02-.25.02-.51 0-.76v-.22h5.28-.12z"/></g></svg>