<svg viewBox="0 0 281.76 129.4" xmlns="http://www.w3.org/2000/svg"><path d="m8.31 128.46h-8.31v-1.22h2.39v-20.75h-2.2v-1.22h14.7c3.1 0 7.32.05 7.37.05l.85 7.23h-1.08l-.09-.28c-1.31-4.51-2.25-5.78-7.04-5.78h-8.66v10.14h5.07c4.32 0 5.54-.38 5.54-3.15v-.42h1.08v8.31h-1.08v-.42c0-1.97-1.22-3.05-5.54-3.05h-5.07v9.39h2.07zm28.69-18.36c-5.73 0-9.06 3.24-9.06 8.87s3.19 8.78 9.06 8.78 9.06-3.1 9.06-8.78c0-5.63-3.29-8.87-9.06-8.87m0 18.78c-8.4 0-12.96-5.12-12.96-9.91 0-6.24 6.57-10 12.96-10 8.4 0 12.96 5.16 12.96 10-.05 6.43-6.71 9.91-12.96 9.91m26.43 0c-4.74 0-10.38-1.69-10.38-9.67v-8.69h-1.93v-1.13h7.65v1.13h-2.11v8.69c0 7.47 4.23 8.59 6.76 8.59 3.94 0 8.22-2.25 8.22-8.59v-8.69h-1.93v-1.13h4.7v1.13h-1.78v8.69c0 7.14-4.98 9.67-9.2 9.67m18.22-10h6.86c3.29 0 4.79-1.31 4.79-4.18s-1.5-4.18-4.79-4.18h-6.86zm7.09 1.13h-7.04v7.37h1.74v1.13h-7.42v-1.13h2.21v-16.81h-2.21v-1.13h12.54c2.16 0 8.69 0 8.69 5.31 0 2.39-1.36 4.08-3.9 4.79 0 0-1.46.47-4.6.47zm45.92-12.58.52 5.68-1.03-.05-.28-.94c-1.46-4.27-4.41-6.1-9.11-6.1s-7.42 1.31-7.42 3.52c0 2.39 3.85 3.38 7.93 4.41 5.02 1.27 10.75 2.72 10.75 7.47 0 4.98-3.85 7.51-11.41 7.51 0 0-5.59-.19-9.91-1.83l-1.27-6.71h.94l.38 1.03c1.55 3.85 5.4 6.29 9.81 6.29 3.24 0 8.73-.61 8.73-4.55 0-2.82-4.08-3.8-8.4-4.88-5.07-1.22-10.28-2.49-10.28-7.04 0-4.13 3.66-6.48 10.09-6.48 1.97 0 3.1.23 4.98.75 0 .09 3.24 1.03 4.98 1.93m24.13 21.22h-.09s-3.29-.14-5.12-.14h-14.23v-1.13h2.11v-16.81h-2.11v-1.13h13.8c1.74 0 3.52 0 3.94-.14l1.03-.14.61 5.35-.85.05-.09-.28c-1.13-3.52-2.86-3.76-4.7-3.76h-8.22v7.47h4.6c3.29 0 4.37-.42 4.37-2.82v-.42h.99v7.32h-.99v-.42c0-1.78-1.08-2.58-4.37-2.58h-4.6v8.26h8.69c3.15 0 3.9-.99 4.98-3.52l.09-.28h1.03l-.89 5.12m8.87-7.56h10.75l-5.35-9.72zm12.25 7.37v-1.13h1.97l-2.86-5.16h-12.02l-2.91 5.16h1.97v1.13h-4.84v-1.13h1.69l9.39-16.81h-1.69v-1.13h5.12l.09.19 9.81 17.75h1.88v1.13h-7.61zm43.57-19.49c-6.34 0-12.96 3.76-12.96 10 0 4.79 4.55 9.91 12.96 9.91 6.29 0 12.96-3.47 12.96-9.91 0-4.84-4.55-10-12.96-10m0 18.78c-5.82 0-9.06-3.1-9.06-8.78s3.29-8.87 9.06-8.87 9.06 3.24 9.06 8.87-3.19 8.78-9.06 8.78m14.56-18.36v1.13h1.5l.85.8v16.06h-2.25v1.13h5.26v-1.13h-2.02v-15.12l17.98 16.95.19.19v-18.87h1.69v-1.13h-4.74v1.13h2.07v13.24l-15.12-14.32-.05-.05h-5.35m-138.6 18.41c-2.91-.09-3.19-1.17-3.94-2.63l-2.63-5.73h-3.9l4.88 9.48h5.63l-.05-1.13m107.29-16.43.42 4.65h-.85l-.23-.8c-1.17-3.47-3.62-4.98-7.47-4.98s-6.06 1.08-6.06 2.86c0 1.97 3.15 2.77 6.48 3.62 4.13 1.03 8.78 2.21 8.78 6.1s-3.15 6.15-9.3 6.15c0 0-4.55-.14-8.08-1.5l-1.03-5.49h.8l.33.85c1.27 3.15 4.41 5.16 8.03 5.16 2.68 0 7.14-.47 7.14-3.71 0-2.3-3.33-3.15-6.86-3.99-4.13-.99-8.4-2.02-8.4-5.73 0-3.38 3-5.31 8.26-5.31 1.6 0 2.54.19 4.08.61-.09 0 2.54.75 3.94 1.5m73.95 0 .42 4.65h-.85l-.23-.8c-1.17-3.47-3.62-4.98-7.47-4.98s-6.06 1.08-6.06 2.86c0 1.97 3.15 2.77 6.48 3.62 4.13 1.03 8.78 2.21 8.78 6.1s-3.15 6.15-9.3 6.15c0 0-4.55-.14-8.08-1.5l-1.03-5.49h.8l.33.85c1.27 3.15 4.41 5.16 8.03 5.16 2.68 0 7.14-.47 7.14-3.71 0-2.3-3.33-3.15-6.86-3.99-4.13-.99-8.4-2.02-8.4-5.73 0-3.38 3-5.31 8.26-5.31 1.6 0 2.54.19 4.08.61-.09 0 2.54.75 3.94 1.5m-109.59-57.09c-1.64.66-2.68 1.88-2.25 3.9 1.97-.7 2.49-2.16 2.25-3.9m-6.53 1.17c.33 1.74 1.27 3 3.33 3-.23-2.02-1.6-2.86-3.33-3m3.29 8.31c-.09-2.02-1.46-2.86-3.29-3 .23 1.69 1.13 2.96 3.29 3m-5.92-27.14c-1.74.14-3.1.99-3.33 3 2.07 0 3-1.27 3.33-3m-7.93-1.5c.33 1.74 1.27 3 3.33 3-.23-2.02-1.6-2.86-3.33-3m-.47-6.29c2.07-.05 3-1.27 3.33-3-1.78.14-3.1.94-3.33 3m1.6-7.61c-1.6.7-2.63 1.88-2.21 3.9 1.97-.66 2.44-2.16 2.21-3.9m-5.78 1.46c.05 1.74.8 3.15 2.82 3.43.09-2.02-1.13-3-2.82-3.43m-.75-4.93c2.07-.05 3-1.27 3.29-3-1.74.19-3.05.99-3.29 3m1.74-7.14c-1.5.85-2.39 2.16-1.78 4.08 1.83-.85 2.21-2.39 1.78-4.08m-2.35 5.54c.05-2.07-1.13-3.05-2.82-3.43.05 1.74.8 3.15 2.82 3.43m-1.08 3c-.23-2.02-1.55-2.86-3.29-3 .28 1.69 1.22 2.96 3.29 3m-5.49 3.99c.61-.38 6.95-4.08 6.95-4.08s.05-.05.05-.09l-.28-2.25h-.09s.09.94.05 1.31c-.05.42-.09.56-.42.8l-7.04 3.62c0 .56 0 1.08.05 1.64.09-.28.28-.61.75-.94m-1.55-20.05c-.23-2.02-1.55-2.86-3.29-3 .28 1.74 1.22 3 3.29 3m-.05 3.33c-.23-2.02-1.55-2.86-3.29-3 .28 1.74 1.22 3 3.29 3m-.05 3.33c-.23-2.02-1.55-2.86-3.29-3 .28 1.74 1.22 2.96 3.29 3m-.05 3.33c-.23-2.02-1.55-2.86-3.29-3 .28 1.69 1.22 2.96 3.29 3m-.05 3.33c-.23-2.02-1.55-2.86-3.29-3 .28 1.74 1.22 2.96 3.29 3m-.05 3.33c-.23-2.02-1.55-2.86-3.29-3 .28 1.69 1.22 2.96 3.29 3m-4.46-7.61c-1.69.56-2.77 1.64-2.54 3.66 2.02-.47 2.63-1.93 2.54-3.66m-2.44 6.15c2.07-.05 3-1.27 3.29-3-1.74.14-3.1.94-3.29 3m-.8-2.07c.28-2.02-.8-3.15-2.44-3.76-.14 1.74.42 3.19 2.44 3.76m-.47 2.3c-.23-2.02-1.55-2.86-3.29-3 .33 1.69 1.27 2.96 3.29 3m4.88 9.34c-1.74.14-3.1.99-3.33 3 2.11-.05 3.05-1.31 3.33-3m-5.73 1.74c2.07-.05 3-1.27 3.33-3-1.78.14-3.1.99-3.33 3m8.17-.52c-1.74.14-3.1.99-3.33 3 2.07 0 3-1.27 3.33-3m-4.32-3.43c2.07-.05 3-1.27 3.29-3-1.74.14-3.1.99-3.29 3m-2.35-1.31c2.07-.05 3-1.27 3.29-3-1.74.14-3.05.94-3.29 3m-2.35-1.41c2.07-.05 3-1.27 3.29-3-1.74.14-3.1.99-3.29 3m1.74 2.35c-1.74.14-3.1.99-3.33 3 2.07 0 3-1.27 3.33-3m-3.94-.19c.23-2.02-.85-3.15-2.54-3.71-.09 1.74.56 3.19 2.54 3.71m-.66 3.1c-.23-2.07-1.55-2.86-3.33-3 .38 1.69 1.31 2.96 3.33 3m1.78 10.42c-1.74.14-3.1.99-3.33 3 2.07-.05 3-1.31 3.33-3m-5.68 1.64c2.07-.05 3-1.27 3.33-3-1.78.14-3.1.99-3.33 3m8.08-.42c-1.74.14-3.1.99-3.33 3 2.07 0 3.05-1.27 3.33-3m2.44 1.27c-1.74.14-3.1.99-3.33 3 2.07 0 3-1.27 3.33-3m2.44 1.27c-1.74.14-3.1.99-3.33 3 2.07-.05 3-1.27 3.33-3m2.44 1.22c-1.74.14-3.1.99-3.33 3 2.07 0 3-1.27 3.33-3m-3.47-4.93c2.07-.05 3-1.27 3.33-3-1.78.14-3.15.99-3.33 3m-2.39-1.36c2.07-.05 3-1.27 3.33-3-1.74.14-3.1.94-3.33 3m-2.3-1.41c2.07-.05 3-1.27 3.33-3-1.78.14-3.1.99-3.33 3m-2.35-1.36c2.07-.05 3-1.27 3.33-3-1.78.14-3.1.99-3.33 3m-2.35-1.36c2.07-.05 3-1.27 3.33-3-1.74.14-3.1.94-3.33 3m.7.99c-1.74.14-3.1.99-3.33 3 2.07 0 3-1.27 3.33-3m-3.71 1.36c.52-1.97-.47-3.24-2.07-3.99-.33 1.74.14 3.24 2.07 3.99m-.56 2.63c-.23-2.07-1.55-2.86-3.33-3 .33 1.74 1.27 2.96 3.33 3m-.47 3c-.23-2.07-1.55-2.86-3.33-3 .33 1.74 1.27 3 3.33 3m5.73 8.45c2.07-.05 3-1.27 3.33-3-1.78.09-3.1.94-3.33 3m0 4.7c2.07-.05 3-1.27 3.33-3-1.78.14-3.1.99-3.33 3m-2.3-6.06c2.07-.05 3-1.31 3.33-3-1.78.09-3.1.94-3.33 3m-2.35-1.41c2.07-.05 3-1.31 3.33-3-1.74.14-3.1.99-3.33 3m-2.3-1.36c2.07-.05 3-1.31 3.33-3-1.78.14-3.1.99-3.33 3m48.03 12.91s.33 3.38.23 4.74c-.09 1.55-.33 2.07-1.5 2.86l-25.45 13.1c-.05-2.49-.09-5.35-.14-8.45v-.8c-.05-1.69.42-2.63 2.44-3.9 1.74-1.13 20.52-12.07 20.52-12.07.05-.05.09-.09.09-.23l-.85-6.67h-.28s.23 2.82.19 3.94c-.09 1.27-.23 1.74-1.22 2.35l-20.99 10.8c-.05-3.24-.09-6.62-.19-10.05v-.94c.05-1.08.42-1.74 1.78-2.58 1.31-.85 15.31-9.01 15.31-9.01.05 0 .09-.05.09-.19l-.66-4.98h-.23s.19 2.11.14 2.91c-.05.94-.19 1.27-.89 1.74l-15.64 8.03c-.05-3.9-.14-7.84-.19-11.69.09-.56.42-1.27 1.27-1.78.94-.61 10.99-6.48 10.99-6.48s.05-.05.05-.14l-.47-3.57h-.14s.14 1.5.09 2.11c-.05.7-.14.94-.66 1.27l-11.17 5.78c-.05-3.57-.14-7.09-.19-10.38 0-.56 0-1.13-.05-1.64-.23-12.86-.42-22.4-.42-22.4 0-.05-.05-.09-.09-.09s-.09.05-.09.09c0 0-.19 9.53-.38 22.35v.8-.8l-7-3.62c-.33-.23-.38-.38-.42-.8-.05-.38.05-1.31.05-1.31h-.09l-.28 2.25s0 .05.05.09c0 0 6.34 3.71 6.95 4.08.42.28.61.56.75.89-.05 3.33-.14 6.86-.19 10.47l-11.17-5.73c-.52-.33-.61-.56-.66-1.27-.05-.61.09-2.11.09-2.11h-.14l-.47 3.57c0 .09.05.09.05.14 0 0 10.05 5.87 10.99 6.48.8.52 1.13 1.13 1.27 1.64-.05 3.9-.14 7.89-.19 11.83l-15.64-8.03c-.7-.47-.85-.8-.89-1.74-.05-.85.14-2.91.14-2.91h-.23l-.66 4.98c0 .09.05.14.09.19 0 0 14.04 8.22 15.31 9.01 1.41.89 1.78 1.55 1.78 2.68v.99c-.05 3.38-.09 6.71-.19 9.91l-20.99-10.8c-.99-.61-1.13-1.08-1.22-2.35-.09-1.13.19-3.9.19-3.9h-.33l-.85 6.67c0 .14.05.19.09.23 0 0 18.78 10.99 20.52 12.07 2.02 1.27 2.49 2.21 2.44 3.9-.05 3.43-.09 6.53-.14 9.25l-25.45-13.19c-1.17-.75-1.36-1.31-1.5-2.86-.09-1.36.23-4.74.23-4.74h-.33l-1.03 8.08c0 .19.09.23.14.28 0 0 22.72 13.29 24.84 14.65 2.49 1.55 2.96 1.69 2.96 4.55 0 .14-.05 3.43-.05 3.57 0 2.49-1.97 2.58-1.97 2.58v.47h7.28v-.47s-1.97-.05-1.97-2.58c0-.14-.05-3.33-.05-3.57 0-2.86.52-2.96 2.96-4.55 2.11-1.36 24.84-14.65 24.84-14.65.05-.05.14-.09.14-.28l-1.03-8.08h-.33m-36.29-5.96c2.07-.05 3-1.27 3.33-3-1.78.14-3.1.99-3.33 3m5.63-1.5c-1.74.14-3.1.99-3.33 3 2.07 0 3-1.27 3.33-3m12.4-6.81c1.6-1.27 1.6-2.86.8-4.41-1.31 1.17-1.88 2.63-.8 4.41m-3.33-2.25c-1.31 1.17-1.83 2.68-.8 4.41 1.6-1.27 1.6-2.86.8-4.41m-4.37-6.06c.33 1.74 1.27 3 3.33 3-.28-2.07-1.6-2.86-3.33-3m11.78 13.52c-.23-2.07-1.55-2.86-3.33-3 .33 1.74 1.27 2.96 3.33 3m-4.13 2.25c-.23-2.07-1.55-2.86-3.33-3 .33 1.69 1.27 2.96 3.33 3m11.64 16.62c-.23-2.07-1.55-2.86-3.33-3.05.33 1.74 1.27 3 3.33 3.05m-4.79 2.16c-.23-2.07-1.55-2.86-3.33-3 .33 1.74 1.27 3 3.33 3m-5.54-8.12c.33 1.74 1.27 3 3.33 3-.23-2.02-1.55-2.86-3.33-3m-3.1 12.54c-.23-2.07-1.55-2.86-3.33-3 .33 1.74 1.27 3 3.33 3m18.31-5.12c-.33 2.02.85 3.1 2.63 3.62.14-1.74-.52-3.15-2.63-3.62m-4.55 3.29c.09 2.07 1.46 2.86 3.33 3.05-.23-1.74-1.13-3-3.33-3.05m-7 6.76c1.93-.8 2.35-2.3 1.97-4.04-1.55.75-2.49 2.02-1.97 4.04m8.17-31.13c-.23-2.07-1.55-2.86-3.33-3 .33 1.74 1.27 2.96 3.33 3m-.14 3c-.23-2.07-1.55-2.86-3.33-3 .33 1.74 1.27 3 3.33 3m1.83 2.02c2.07-.05 3-1.27 3.33-3-1.78.14-3.15.99-3.33 3m2.82-8.03c-1.74.14-3.1.99-3.33 3 2.07-.05 3-1.27 3.33-3" fill="#2a2d2e"/></svg>