<svg viewBox="0 0 367.43 136.37" xmlns="http://www.w3.org/2000/svg"><g fill="#2a2d2e"><path d="m0 68.19v68.19h367.43v-136.38h-367.43zm361.29 0v62.05l-177.48-.06-177.51-.1-.1-61.98-.06-61.95h355.15v62.05z"/><path d="m31.67 33.09v1.75l1.39.23c.74.1 1.84.29 2.42.39l1.03.16-.06 32.54-.1 32.51-2.33.26-2.36.29v3.81h24.56v-3.81l-2.33-.29-2.36-.26-.1-14.8-.06-14.77h32.32v14.67c0 12.25-.06 14.7-.45 14.83-.26.1-1.49.29-2.75.42l-2.29.23v3.78h25.21v-3.81l-2.17-.23c-1.16-.13-2.33-.29-2.59-.39-.36-.13-.42-5.95-.42-32.57v-32.41l1.29-.19c.71-.1 1.87-.29 2.59-.39l1.29-.19v-3.49h-25.21v3.49l1.55.19c.84.13 2.07.29 2.75.39l1.2.19v27.73h-32.32v-27.73l1.39-.23c3.81-.58 3.46-.36 3.46-2.29v-1.75h-24.56v1.75z"/><path d="m122.44 32.25c-6.72 3.49-4.04 13.64 3.59 13.64 2.29 0 4.07-.84 5.56-2.55 2.42-2.84 2.42-6.59-.03-9.44-2.26-2.68-5.91-3.33-9.11-1.65z"/><path d="m147.68 32.93v1.58l2.2.26 2.17.29.1 33.03.06 32.99-.87.19c-.52.1-1.52.26-2.26.36l-1.39.23v3.17h22.94v-3.17l-1.36-.23c-.78-.1-1.78-.26-2.26-.36l-.9-.19v-69.73h-18.42v1.58z"/><path d="m192.05 39.55-6.56 1.97v11.15h-10.02v4.85h9.66l.1 19.62c.13 21.85.13 21.62 2.36 24.72 3.39 4.65 13.54 5.14 25.63 1.2l2-.68v-3.55l-.97.23c-.55.13-2.84.23-5.11.23-5.88.03-7.76-.68-9.18-3.55l-.74-1.52-.1-18.36-.1-18.32h12.31v-4.85h-12.28v-7.59c0-4.17-.1-7.59-.23-7.56-.16.03-3.2.94-6.79 2.04z"/><path d="m241.72 51.25c-4.85.65-10.89 3.07-14.28 5.75-3.97 3.17-7.17 8.21-8.66 13.6-1 3.62-1.26 11.67-.52 15.96 1.07 6.01 2.81 9.73 6.33 13.28 4.2 4.23 9.99 6.3 18.74 6.66 9.24.42 16.8-2.04 22.3-7.21 5.2-4.88 7.63-10.53 7.98-18.52.23-5.07-.26-8.92-1.65-12.99-1.42-4.23-2.78-6.4-5.85-9.47-2.1-2.13-3.17-2.88-5.66-4.14-4.23-2.07-7.5-2.81-13.09-2.97-2.49-.06-5.04-.03-5.66.03zm5.82 4.01c3.78.71 6.37 2.88 8.24 6.95 2.04 4.39 2.75 8.66 2.75 16.77 0 16.19-3.94 23.49-12.76 23.53-3.2.03-5.53-.87-7.5-2.94-4.1-4.2-6.11-13.96-5.27-25.4.84-11.47 4.3-17.68 10.44-18.9 1.91-.36 2.2-.36 4.1 0z"/><path d="m313.85 51.74c-4.04.52-9.02 2.75-13.25 5.95-1.29.97-2.52 1.78-2.68 1.78s-.29-1.52-.29-3.39v-3.39h-18.42v3.49l1.55.19c.84.13 1.91.29 2.42.39l.87.19v44.14l-1.84.19q-3.01.36-3.01 2.17v1.58h23.27v-1.62c0-.9-.1-1.62-.23-1.65-.16-.03-1.2-.19-2.36-.42l-2.1-.36v-37.49l1.62-1.07c.9-.58 2.78-1.52 4.2-2.07 2.23-.9 2.97-1.03 5.49-1.07 3.2 0 4.69.55 6.37 2.33 2.55 2.68 2.91 5.69 2.78 24.66l-.1 14.7-2.1.36c-1.16.23-2.2.39-2.33.42-.16.03-.26.74-.26 1.65v1.62h23.27v-1.58q0-1.81-2.97-2.13l-1.84-.23-.1-18.81c-.1-18.61-.13-18.81-.87-21.04-1-3.07-1.97-4.65-3.91-6.4-1.91-1.71-4.33-2.71-7.56-3.13-2.59-.36-2.81-.36-5.62.03z"/><path d="m114.4 54.26v1.58l1.55.19c.84.13 1.91.29 2.42.39l.87.19-.06 22.17-.1 22.2-2.1.36c-1.16.23-2.2.39-2.33.42-.16.03-.26.74-.26 1.65v1.62h23.3l-.1-1.49c-.13-1.78-.36-1.97-2.91-2.23l-1.87-.19v-48.44h-18.42v1.58z"/></g></svg>