<svg viewBox="0 0 352.8 150" xmlns="http://www.w3.org/2000/svg"><path d="m0 0h352.8v150h-352.8z" fill="#2a2d2e"/><path d="m248.84 132.6h1.41v-4.29l3.82-5.88h-1.76l-2.88 4.47-2.88-4.47h-1.76l3.82 5.88v4.29h.24zm-12.58 0h6.82v-1.29h-5.59v-3.35h4.94v-1.29h-4.94v-2.94h5.23v-1.29h-6.7v10.17h.24zm-12.23 0h1.41v-8.47l5.7 8.47h1.76v-10.17h-1.41v8.47l-5.7-8.47h-1.76zm-8.47-8.88h2.7c.35 0 .47.18.65.29s.29.29.47.47.18.47.18.82c0 .29 0 .65-.18.82l-.47.47c-.18.18-.47.18-.65.18h-2.7v-3.06zm-1.41 8.88h1.41v-4.47h1.59l2.53 4.47h1.76l-2.88-4.65c.29 0 .82-.18 1.12-.29s.65-.29.82-.65c.18-.29.29-.47.47-.82s.18-.65.18-.94 0-.65-.18-.94-.29-.65-.47-.94c-.29-.29-.65-.47-.94-.65-.47-.18-.94-.29-1.59-.29h-3.65v10.17h-.18zm-11-10.17v6.53c0 .65.18 1.12.29 1.59.18.47.47.94.82 1.29s.82.65 1.29.82.94.29 1.59.29 1.12-.18 1.59-.29.94-.47 1.29-.82c.29-.29.65-.82.82-1.29.18-.47.29-.94.29-1.59v-6.53h-1.41v6.35c0 .29 0 .65-.18.94s-.18.65-.47.94c-.18.29-.47.47-.82.65-.29.18-.82.29-1.29.29s-.94-.18-1.29-.29c-.29-.18-.65-.47-.82-.65-.18-.29-.29-.65-.47-.94s-.18-.65-.18-.94v-6.35h-1.06zm-9.41 8.88c-.47-.18-.94-.47-1.29-.94-.29-.29-.65-.82-.82-1.29-.18-.47-.29-.94-.29-1.59s.18-1.12.29-1.59c.18-.47.47-.94.82-1.29.29-.29.82-.65 1.29-.82.47-.18.94-.29 1.59-.29s1.12.18 1.59.29c.47.18.94.47 1.29.82.29.29.65.82.82 1.29.18.47.29.94.29 1.59s-.18 1.12-.29 1.59c-.18.47-.47.94-.82 1.29-.29.29-.82.65-1.29.94-.47.18-.94.29-1.59.29-.65.06-1.12-.12-1.59-.29m3.65 1.29c.65-.29 1.29-.65 1.76-1.12s.82-1.12 1.12-1.76.47-1.41.47-2.06c0-.82-.18-1.41-.47-2.06s-.65-1.29-1.12-1.76-.94-.82-1.76-1.12c-.65-.29-1.41-.47-2.23-.47s-1.41.18-2.23.47c-.65.29-1.29.65-1.76 1.12s-.82 1.12-1.12 1.76-.47 1.41-.47 2.06c0 .82.18 1.41.47 2.06s.65 1.29 1.12 1.76.94.82 1.76 1.12c.65.29 1.41.47 2.23.47 1-.12 1.65-.29 2.23-.47m-11.58-3.35v.82c0 .29-.18.47-.18.82l-.47.47c-.18.18-.47.18-.82.18s-.65-.18-.94-.29-.47-.47-.47-.94l-1.41.29c.18.82.47 1.29.94 1.76.47.29 1.12.47 1.88.47.29 0 .65 0 .94-.18s.65-.29.94-.47.65-.65.82-.94c.18-.47.29-.94.29-1.59v-7.35h-1.41v7h-.12v-.06zm-17.99 3.35h6.82v-1.29h-5.41v-3.35h4.94v-1.29h-4.94v-2.94h5.23v-1.29h-6.7c.06 0 .06 10.17.06 10.17zm-11.47 0h1.41v-4.76h5.23v4.76h1.41v-10.17h-1.41v4.29h-5.23v-4.29h-1.41zm-7 0h1.41v-8.88h3.35v-1.29h-7.94v1.29h3.35v8.94h-.18v-.06zm-15.76-8.88h2.59c.35 0 .47.18.65.29s.29.29.47.47.18.47.18.82c0 .29 0 .65-.18.82l-.47.47c-.18.18-.47.18-.65.18h-2.59v-3.06zm-1.29 8.88h1.41v-4.47h1.59l2.53 4.47h1.76l-2.88-4.65c.29 0 .82-.18 1.12-.29.29-.18.65-.29.82-.65.18-.29.29-.47.47-.82s.18-.65.18-.94 0-.65-.18-.94-.29-.65-.47-.94c-.29-.29-.65-.47-.94-.65-.47-.18-.94-.29-1.59-.29h-3.65v10.17h-.18zm-9.7-1.29c-.47-.18-.94-.47-1.29-.94-.29-.29-.65-.82-.82-1.29-.18-.47-.29-.94-.29-1.59s.18-1.12.29-1.59c.18-.47.47-.94.82-1.29.29-.29.82-.65 1.29-.82s.94-.29 1.59-.29 1.12.18 1.59.29c.47.18.94.47 1.29.82.29.29.65.82.82 1.29.18.47.29.94.29 1.59s-.18 1.12-.29 1.59c-.18.47-.47.94-.82 1.29-.29.29-.82.65-1.29.94-.47.18-.94.29-1.59.29-.47.06-1.12-.12-1.59-.29m3.82 1.29c.65-.29 1.29-.65 1.76-1.12s.82-1.12 1.12-1.76.47-1.41.47-2.06c0-.82-.18-1.41-.47-2.06s-.65-1.29-1.12-1.76-.94-.82-1.76-1.12c-.65-.29-1.41-.47-2.23-.47s-1.41.18-2.23.47c-.65.29-1.29.65-1.76 1.12s-.82 1.12-1.12 1.76-.47 1.41-.47 2.06c0 .82.18 1.41.47 2.06s.65 1.29 1.12 1.76 1.12.82 1.76 1.12 1.41.47 2.23.47c.76-.12 1.59-.29 2.23-.47m-13.7 0h1.29l4-10.17h-1.59l-3.18 8.29-3-8.29h-1.59l4.06 10.17zm-11.17-3.65 1.88-4.76 1.88 4.76zm-3 3.65h1.59l.94-2.53h4.94l.94 2.53h1.59l-4.47-10.17h-1.29l-4.23 10.17zm-8.47-1.12c.29.47.82.82 1.41 1.12.65.18 1.29.29 1.88.29.47 0 .94 0 1.41-.18s.82-.29 1.12-.65c.29-.29.65-.65.82-.94s.29-.82.29-1.29c0-.65-.18-1.12-.29-1.41-.29-.29-.65-.65-.94-.82s-.82-.29-1.29-.47-.82-.29-1.29-.29c-.29-.18-.65-.29-.94-.65-.29-.18-.29-.65-.29-.94 0-.18 0-.29.18-.47 0-.18.18-.29.29-.47.18-.18.29-.29.65-.29.29-.18.65-.18.94-.18.47 0 .82 0 1.12.29.29.18.65.29.82.65l1.12-.94c-.29-.47-.82-.82-1.29-.94s-1.12-.18-1.59-.18c-.65 0-1.12.18-1.59.29s-.82.47-1.12.65c-.29.29-.47.65-.65.94s-.18.65-.18.94c0 .65.18 1.29.29 1.59l.94.94c.29.18.82.47 1.29.47.47.18.82.29 1.29.47.29.18.65.29.94.47s.29.47.29.94c0 .29 0 .47-.18.82-.18.18-.29.29-.47.47s-.47.29-.65.29-.47.18-.65.18c-.47 0-.82-.18-1.29-.29-.29-.18-.82-.47-.94-.82l-1.47.41z" fill="#fff"/><path d="m195.81 35.63c3-11.94-5.23-13.23-8.47-12.76h-.29c-4-3.35-8.58-5.41-13.88-5.41-16.05 0-27.05 13.7-27.05 30.58s10.82 30.58 27.05 30.58c13.7 0 24.7-13.7 24.7-30.58.18-4.41-.59-8.58-2.06-12.41z" fill="#fff"/><path d="m193.75 33.28c-.65-1.41-1.29-2.23-1.41-2.41-.18-.18-.29 0-.47.18-4.65 6.82-7 14.35-8.11 20.52-.29 1.41-.47 3-.65 4.29s-.29.94-.29.18c0-1.41.18-2.41.29-3.65 0 0 .18-1.59.29-2.23 1.76-12.88 6.82-19.87 6.82-19.87.18-.18 0-.47-.18-.47-.65-.18-1.76-.29-2.41-.29-.94 0-1.88.18-3 .29-7.94 1.59-15.11 9.41-17.99 12.11-1.88 1.76-3.65 3.65-5.41 5.59-1.59 1.76-3.18 3.65-4.65 5.59-.29.47-.65.82-.94 1.29-.18.18-1.29 1.59-2.53 3.35-.82-3-1.29-6.23-1.29-9.41 0-15.46 9.7-28.05 21.64-28.05 4.12 0 7.94 1.59 11.29 4.12-.18 0-.29.18-.47.18h-.65c-4.65 1.41-9.7 4.29-14.64 8.76-.47-.18-.82-.18-1.29-.18h-.18c-2.53 0-5.59 1.41-7.35 2.88-.65.47-.94.94-1.12 1.41v2.23c.29-.29 1.41-1.41 2.53-2.06 1.59-.94 3.35-1.59 4.94-1.76-.82.82-1.59 1.59-2.41 2.53-2.41.82-4.29 2.41-5.12 3.53v-2.29c-.82.29-3 1.59-3.35 2.7-.18.29-.18.94-.18 1.29v1s1.59-2.23 3.53-2.7v2.06c-1.29.47-2.88 2.06-3.18 2.53v3.35c-.94 1.59-1.88 3.35-2.7 5.12 1.12-1.76 2.41-3.35 3.53-4.76 1.29-1.59 2.41-3.35 3.65-4.94.47-.82 1.12-1.41 1.59-2.06.18-.29.47-.47.65-.82 1.41-1.59 2.88-3.18 4.47-4.76l1.88-1.88c.29-.29.65-.65.94-.82s.47-.47.82-.65c1.12-.94 2.23-1.76 3.35-2.7 1.29-.94 2.41-1.76 3.65-2.53 2.41-1.41 4.76-2.41 7.47-3 .18 0 .29 0 .47-.18.47-.18.82-.18 1.29-.18 1.88-.29 4-.18 5.7.94.47.29.94.65 1.29 1.12.29.29.47.65.65.94.47.82.65 1.88.82 3v1.12c.18-.82.18-1.59.18-2.41 0-.94-.47-2.23-.82-3-1.41-2.88-4.76-4-7.94-3.53h-.29c-3.82-3.35-8.47-5.41-13.35-5.41-15.29 0-25.46 13.35-25.46 29.64s10.17 29.64 25.46 29.64c12.88 0 23.4-13.35 23.4-29.64.41-5.47-.82-10.53-2.76-14.82zm-32.46 37.87c1.59.29 3 .65 4.47.82 3.35.29 8.11-.47 11.76.18 1.59.29 2.88 1.12 3.65 2.06-2.41 1.29-5.12 1.88-7.82 1.88-4.29-.18-8.58-1.94-12.05-4.94zm24.52-3.18c-.29-3.18-.29-6.35 0-9.53.47-6.35 2.41-12.76 6.23-17.99 0-.18.18-.29.29-.47l.18-.18s-.18.18.94-1.29l.29-.29c.94 3 1.41 6.35 1.41 9.88 0 10.17-4.12 18.93-10.35 23.87-2.06-2.06-4.47-2.7-8.58-2.88-4.12 0-8.29 1.29-14.17.65-.82-.18-1.76-.29-2.88-.65-.47-.65-.94-1.12-1.41-1.76 1.12.29 2.41.65 3.53.82 6.53.65 11.47-.82 15.58-.94 4.29 0 6.82.65 8.94 2.23z" fill="#2a2d2e"/><g fill="#fff"><path d="m166.05 110.13h-1.29c-.94 0-2.06-.47-2.7-1.76-.47-1.12-3-8.47-4-11.47-.82-2.53-3.53-10.82-4.29-13.23-.18-.47-.18-.65-.47-.65-.18 0-.29.18-.47.29-.47.47-2.41 2.23-3.53 2.53-.29 0-.29.18-.29.29s.18.29.29.47c0 .29-.29 1.12-.29 1.29-.29 1.12-3.18 8.47-3.53 9.23-1.12 3.18-4 10.53-4.29 11-.47 1.29-1.12 1.76-2.23 1.76h-1.41c-.18 0-.29 0-.29.29v1.12c0 .18 0 .29.29.29.47 0 1.41-.18 4.29-.18 2.23 0 4 .18 4.47.18.18 0 .29 0 .29-.29v-.94c0-.18-.18-.29-.29-.29h-1.88c-.82 0-1.29-.29-1.29-.82 0-.18 0-.65.18-.82.18-.82 2.41-6.7 2.7-7.82h9.53c.47 1.59 2.23 6.53 2.41 7.94.29 1.12-.18 1.41-1.12 1.41h-.94c-.18 0-.29 0-.29.29v.94c0 .18.18.29.29.29.82 0 2.23-.18 5.23-.18h5.41v-1.12c-.18.12-.18-.06-.47-.06zm-19.58-10.82c.29-.94 3.82-10.53 4-11 .18-.29.47-.65.65-.65s.29.29.47.65c.18.65 3.18 9.88 3.53 11.17h-8.58v-.18h-.06z"/><path d="m20.99 97.26v-7.82c0-2.06-.29-2.53-1.76-2.53h-1.88c-.18 0-.18-.18-.18-.29v-.94c0-.18.18-.29.29-.29.82 0 2.06.18 5.41.18 3 0 4.47-.18 5.23-.18q.29 0 .29.18v.94c0 .18 0 .29-.29.29h-1.88c-1.29 0-1.59.65-1.59 2.23v8.17c0 .18.18.29.47.29h11.94c.65 0 .82 0 .82-.65v-.29c0-2.23-.18-7.17-.18-7.64 0-1.29-.18-2.06-1.29-2.06h-2.06c-.18 0-.29-.18-.29-.29v-1.06q0-.18.18-.18c.82 0 2.53.18 5.12.18s4.29-.18 4.94-.18c.29 0 .29.18.29.29v.94c0 .18-.18.29-.29.29h-1.76c-1.12 0-1.29.65-1.29 2.06 0 .47-.18 6.7-.18 8.11v1.29c0 1.29.18 7.64.18 9.88 0 1.41.29 1.88 1.59 1.88h1.76q.29 0 .29.29v.94c0 .18-.18.29-.29.29-.82 0-2.06-.18-4.94-.18-3.35 0-4.65.18-5.88.18-.18 0-.18-.18-.18-.29v-.94c0-.18 0-.29.29-.29h2.7c.94 0 1.12-.82 1.12-1.76 0-1.88.18-7.17.18-8.58v-.47c0-.47-.18-.47-.82-.47h-11.88c-.47 0-.47.18-.47.29v9.58c0 .94.47 1.29 1.29 1.29h1.88c.18 0 .29 0 .29.29v1.12c0 .18 0 .29-.29.29-.82 0-2.06-.18-4.94-.18-3.35 0-4.47.18-5.41.18-.18 0-.29 0-.29-.29v-.94c0-.18.18-.29.29-.29h2.23c.94 0 1.12-.94 1.12-1.88 0-1.88.18-8.47.18-9.41v-1.59h-.06z"/><path d="m57.62 103.14c0-4.29-3.18-7-5.12-7-1.12 0-2.06.18-3 1.29-1.59 1.59-2.06 3.18-2.06 6.23 0 2.23.18 3.65 1.41 5.41.94 1.29 2.06 2.06 3.82 2.06 3.06-.18 4.94-3.82 4.94-8m-11.29 6.23c-1.76-2.23-2.23-3.65-2.23-6.35 0-2.06 1.12-4.47 3.35-6.35 2.06-1.59 4-1.88 5.23-1.88 2.06 0 4.29 1.12 5.41 2.23 1.76 1.76 2.7 3.82 2.7 6.35 0 4.29-3.82 8.58-8.58 8.58-1.76.12-4.12-.71-5.88-2.59"/><path d="m110.31 109.55c0 .65.29.82.82.82h1.29c.29 0 .47.18.47.29v.65c0 .29 0 .47-.29.47s-1.41-.18-3.65-.18c-2.06 0-3.18.18-3.53.18-.18 0-.29-.18-.29-.47v-.65c0-.29.18-.29.47-.29h1.12c.47 0 .82-.18.82-.94 0-.94.18-2.23.18-3.35v-5.12c0-1.59 0-2.7-1.12-3.53-.94-.65-1.88-.65-2.88-.65-.65 0-1.88.29-3.18 1.59-.82.82-.94 1.88-.94 2.7v8.11c0 1.12.18 1.29.94 1.29h.94c.29 0 .29.18.29.29v.65c0 .18-.18.29-.29.29-.29 0-1.29-.18-3.35-.18s-3.18.18-3.53.18c-.18 0-.29-.18-.29-.29v-.65c0-.18.18-.29.29-.29h1.12c.47 0 .82-.18.82-.82v-9.06c0-1.12-.65-1.88-1.59-2.23l-.29-.18q-.29-.18-.29-.29v-.18c0-.18.18-.29.29-.29l3.35-1.88c.29-.18.47-.29.65-.29s.29.18.29.47l.29 2.41c1.12-1.41 3.35-2.88 5.41-2.88 1.12 0 2.41.18 3.35.82 1.12.82 2.23 2.7 2.23 3.65v9.88h.06v-.06z"/><path d="m125.3 100.14c0-.47 0-1.29-.29-1.88-.47-1.12-1.76-2.06-4.12-2.06-1.29 0-2.53.29-3.53 1.41-1.59 1.59-1.76 3.65-1.76 5.23 0 4.47 3 7.64 5.23 7.64s3.82-1.12 4.29-2.23c.18-.65.18-.94.18-1.29zm0-10.82c0-1.41-.29-1.88-2.41-2.41-.18 0-.29-.18-.29-.29v-.65c0-.18.18-.18.29-.29 1.59-.29 3.53-.65 4.29-.82.29 0 .65-.18.94-.18.18 0 .18.29.18.65-.18 1.88-.18 6.06-.18 11.17v8.58c0 1.41.18 3.18.29 3.53.29.29 1.12.65 1.76.65.47 0 .65 0 .82.29v.29c0 .18 0 .29-.29.47l-4.47 1.41c-.18.18-.47 0-.47-.29l-.47-1.76c-1.29 1.29-3.82 2.06-5.7 2.06-1.29 0-2.7.18-4.65-1.76-2.06-1.88-2.41-3.65-2.41-6.35 0-2.41.94-4.76 2.7-6.7 1.59-1.59 3.65-2.41 5.88-2.41 1.59 0 3 .18 4.12.65l.06-5.82z"/><path d="m201.74 99.96c.82 0 1.12-.18 1.12-.47 0-.94-.47-3.53-3-3.53-1.76 0-3.35 1.12-4.12 4zm-6.41 1.29c-.18.29-.18.94-.18 1.88 0 3.82 2.41 6.7 5.59 6.7 2.41 0 4.12-1.41 4.76-2.7 0-.18.18-.18.29-.18l.47.29c.18 0 .18.18 0 .65-.65 1.59-2.7 4.29-6.23 4.29-2.23 0-4.65-.65-6.23-2.7-1.41-2.06-1.76-3.53-1.76-6.23 0-1.59.29-4.12 2.41-6.23 1.76-1.76 3.65-2.06 5.59-2.06 4.47 0 5.7 4.12 5.7 5.7 0 .47-.47.65-1.12.65h-9.41v-.06z"/><path d="m209.86 101.25c0-2.06-.29-2.41-1.41-3l-.82-.29c-.18 0-.29-.18-.29-.29v-.18q0-.18.29-.29l3.82-2.06c.18-.18.29-.18.47-.18s.29.18.29.47l.18 2.7h.18c1.12-1.76 3-3.35 4.65-3.35 1.29 0 2.06.82 2.06 1.76 0 1.12-.94 1.88-1.59 1.88-.47 0-.82-.18-1.12-.29s-.82-.29-1.29-.29c-.65 0-1.59.29-2.41 1.59-.18.47-.29 1.12-.29 1.29v8.11c0 1.29.29 1.59 1.12 1.59h1.88c.18 0 .29.18.29.29v.82c0 .18 0 .29-.18.29s-2.06-.18-4.12-.18c-2.41 0-4.12.18-4.29.18s-.18 0-.18-.29v-.76q0-.29.47-.29h1.59c.65 0 .82-.18.82-.82v-8.47h-.12z"/><path d="m223.38 100.31c0-1.29-.18-2.06-2.23-2.41-.29 0-.29-.18-.29-.29v-.35c0-.18.18-.18.29-.29 1.29-.47 2.7-1.12 4.29-1.88.29-.18.47-.18.82-.18.18 0 .18.18.18.47-.18.65-.18 3.18-.18 6.35v7.64c.18.82.18.94.65.94h1.76c.29 0 .29.18.29.29v.65q0 .29-.29.29c-.29 0-2.06-.18-3.82-.18-2.23 0-3.82.18-4.29.18-.18 0-.29 0-.29-.29v-.82c0-.18.18-.29.29-.29h1.88c.47 0 .65-.18.65-.82v-9.11h.29v.12zm-1.76-11.35c0-.94.82-2.06 2.41-2.06 1.41 0 2.06 1.12 2.06 1.88 0 .94-.65 2.23-2.23 2.23-.94 0-2.23-.94-2.23-2.06"/><path d="m231.03 102.2c0 2.06.94 4.47 2.06 5.88 1.29 1.76 2.88 2.06 4.29 2.06 1.88 0 3-.47 4.29-1.76.18 0 .18-.18.29 0l.29.29c.18.18.18.29 0 .47-1.12 1.29-3.65 2.7-6.35 2.7-2.06 0-4.29-.47-6.06-2.7-1.41-1.88-1.76-3.53-1.76-5.23 0-4.65 3.18-9.23 8.47-9.23 4.12 0 5.23 2.41 5.23 3.18 0 .94-.65 1.41-1.41 1.41-.94 0-1.59-.47-2.23-1.59-.82-1.59-1.76-1.76-2.53-1.76-2.23.24-4.59 2.18-4.59 6.29"/><path d="m269.36 95.67c0-2.53-.18-6.7-.18-7.35 0-.94-.29-1.41-1.41-1.41h-1.88c-.29 0-.29-.18-.29-.29v-.82c0-.18 0-.29.29-.29.47 0 1.88.18 5.12.18 3.82 0 5.41-.18 5.7-.18s.29.18.29.29v.94c0 .18 0 .29-.29.29h-2.41c-1.29 0-1.41.29-1.41 1.59 0 .47-.18 6.35-.18 9.06v3.35c0 .65 0 7.64.18 9.23.82 0 6.53.18 7.82 0 2.23-.29 4.65-5.12 5.23-6.53q.18-.18.29-.18l.65.18q.18.18.18.29c-.18.29-1.76 6.7-1.88 7.82h-19.58q-.29 0-.29-.29v-.94c0-.18 0-.29.29-.29h1.88c1.41 0 1.76-.47 1.76-1.12 0-.82.18-8.94.18-11.29l-.06-2.23z"/><path d="m322.05 99.96c.82 0 1.12-.18 1.12-.47 0-.94-.47-3.53-3-3.53-1.76 0-3.35 1.12-4.12 4zm-6.17 1.29c0 .29-.18.94-.18 1.88 0 3.82 2.41 6.7 5.59 6.7 2.41 0 4.12-1.41 4.76-2.7q.18-.18.29-.18l.47.29c.18 0 .18.18 0 .65-.65 1.59-2.7 4.29-6.23 4.29-2.23 0-4.65-.65-6.23-2.7-1.41-2.06-1.76-3.53-1.76-6.23 0-1.59.29-4.12 2.41-6.23 1.76-1.76 3.65-2.06 5.59-2.06 4.47 0 5.7 4.12 5.7 5.7 0 .47-.47.65-1.12.65h-9.41v-.06z"/><path d="m313.35 110.31h-1.29c-.47 0-.82-.18-.82-.82v-10.05c0-.94-.94-2.88-2.23-3.65-.94-.65-2.23-.82-3.35-.82-1.88 0-4.29 1.41-5.41 2.88l-.29-2.41c0-.29-.18-.47-.29-.47s-.29.18-.65.29l-3.35 1.88c-.18 0-.29.18-.29.29v.18q0 .18.29.29l.29.18c.94.47 1.59 1.12 1.59 2.23v9.06c0 .65-.29.82-.82.82h-1.12c-.29 0-.29.18-.29.29v1h3.82c1.88 0 3 .18 3.18.18s.29-.18.29-.29v-.59q0-.29-.29-.29h-.94c-.82 0-.94-.18-.94-1.29v-8.11c0-.82.18-1.76.94-2.7 1.12-1.29 2.53-1.59 3.18-1.59.94 0 1.88 0 2.88.65 1.12.82 1.12 1.88 1.12 3.53v8.47c0 .65-.29.94-.82.94h-1.12c-.29 0-.47.18-.47.29v.65c0 .29.18.47.29.47.29 0 1.59-.18 3.53-.18 2.23 0 3.53.18 3.65.18.18 0 .29-.18.29-.47v-.65c-.24-.18-.24-.35-.53-.35z"/><path d="m252.02 101.9v-2.53c-.18-.65-.18-1.76-.47-2.23-.47-.47-1.29-.82-2.41-.82-.82 0-2.06.29-2.53.82s-.18 1.12-.18 1.76c0 .94-.18 1.59-1.12 1.88-.82.29-1.59-.29-1.59-1.12 0-.94.29-1.59.82-2.41.47-.47.94-.94 1.41-1.29 1.59-.94 3-1.41 4.76-1.41 1.88 0 2.53.47 3.18 1.12.82.82.82 1.76.82 2.7v8.29c0 2.23.47 2.88 1.12 2.88s1.12-.29 1.41-.65c.18-.18.18-.29.29-.18l.29.29c.18.18.18.29 0 .65-.29.65-1.12 1.88-3 1.88-1.41 0-2.41-.94-2.7-2.53"/><path d="m251.84 103.31c-1.41.94-5.23 1.41-5.23 4.65 0 1.41.82 2.23 2.06 2.41 1.12.18 3.18-1.12 3.18-2.23v-4.82zm.35 6.53c-.94.94-2.23 1.59-4 2.06s-3.65.18-4.47-1.76c-.18-.47-.29-1.12-.29-1.76 0-1.76.82-3.53 4-4.65 1.76-.65 3.82-1.41 4.47-1.88"/><path d="m87.91 101.9v-2.53c-.18-.65-.18-1.76-.47-2.23-.47-.47-1.29-.82-2.41-.82-.82 0-2.06.29-2.53.82-.47.47-.18 1.12-.18 1.76 0 .94-.18 1.59-1.12 1.88-.82.29-1.59-.29-1.59-1.12 0-.94.29-1.59.82-2.41.47-.47.94-.94 1.41-1.29 1.59-.94 3-1.41 4.76-1.41 1.88 0 2.53.47 3.18 1.12.94 1.12.94 2.06.94 3v8.29c0 2.23.47 2.88 1.12 2.88s1.12-.29 1.41-.65c.18-.18.18-.29.29-.18l.29.29c.18.18.18.29 0 .65-.29.65-1.12 1.88-3 1.88-1.41 0-2.41-.94-2.7-2.53"/><path d="m87.91 103.31c-1.41.94-5.23 1.41-5.23 4.65 0 1.41.82 2.23 2.06 2.41 1.12.18 3.18-1.12 3.18-2.23v-4.82zm.29 6.53c-.94.94-2.23 1.59-4 2.06s-3.65.18-4.47-1.76c-.18-.47-.29-1.12-.29-1.76 0-1.76.82-3.53 4-4.65 1.76-.65 3.82-1.41 4.47-1.88"/><path d="m192.45 110.31h-1.12c-.47 0-.82-.18-.82-.82v-8.7c0-3-.94-3.82-1.88-4.76s-2.23-1.12-3.53-1.12c-2.41 0-4.65 1.41-5.7 3h-.18c-.82-1.88-2.41-3-4.47-3-2.23 0-4.65 1.41-5.7 3h-.18l-.18-2.41c0-.29-.18-.47-.29-.47s-.47 0-.82.18l-3.53 1.76s-.18.18-.18.29v.29c0 .18.18.18.29.29l.82.47c.94.47 1.12 1.29 1.12 2.06v9.06c0 .82-.18.94-.65.94h-1.29c-.29 0-.47 0-.47.29v.82h4c2.23 0 3.18.18 3.53.18s.29-.18.29-.47v-.65q0-.29-.29-.29h-1.41c-.47 0-.82-.29-.82-.94v-7.82c0-1.12 0-1.88.47-2.53 1.12-1.76 2.7-2.23 3.82-2.23.82 0 2.06.18 2.53.65.65.65 1.12 1.29 1.12 4.29v8.11c0 .47-.18.65-.82.65h-1.12c-.29 0-.29.18-.29.29v.65q0 .29.29.29c.18 0 1.59-.18 3.65-.18 2.23 0 3.18.18 3.53.18.18 0 .29-.18.29-.47v-.65q0-.29-.47-.29h-1.29c-.65 0-.82-.29-.82-.94v-6.7c0-1.76 0-2.88.47-4 .65-1.12 2.23-2.06 3.35-2.06s2.23.29 2.88.82c.94.65 1.12 1.88 1.12 3.18v5.7c0 .82 0 2.23-.18 3.18 0 .47-.29.82-.82.82h-.76c-.47 0-.47.18-.47.29v.65c0 .29.18.29.29.29.29 0 1.76-.18 3.65-.18s3 .18 3.18.18.29-.18.29-.29v-.65c.12-.06-.06-.24-.41-.24z"/><path d="m295.35 110.31h-1.76c-.47 0-.47-.29-.65-.94v-7.64c0-3.18 0-5.7.18-6.35 0-.29 0-.47-.18-.47s-.47 0-.82.18c-1.41.82-3 1.41-4.29 1.88-.18 0-.29.18-.29.29v.29c0 .18.18.18.29.29 1.88.29 2.23.94 2.23 2.41v9.23c0 .65-.18.82-.65.82h-1.88c-.29 0-.29.18-.29.29v.82c0 .18.18.29.29.29.47 0 1.88-.18 4.12-.18h4.12v-.94c.06-.12-.12-.29-.41-.29z"/><path d="m290.53 91.02c1.59 0 2.23-1.12 2.23-2.23 0-.82-.65-1.88-2.06-1.88s-2.41 1.12-2.41 2.06c.18 1.12 1.47 2.06 2.23 2.06z"/><path d="m68.91 110.31h-1.76c-.82 0-.94-.47-.94-1.29v-12.58c0-.94.18-9.53.18-11 0-.47 0-.65-.18-.65-.29 0-.47 0-.94.18-.82.18-2.7.47-4.29.82-.18 0-.29.18-.29.29v.65q0 .18.29.29c2.23.29 2.41.82 2.41 2.41v19.93c0 .65-.47.94-.82.94h-1.88c-.47 0-.47.18-.47.29v.65c0 .18 0 .29.29.29s1.88-.18 4.47-.18h4.65v-.94c-.18.06-.18-.12-.71-.12z"/><path d="m78.79 110.31h-1.76c-.82 0-.94-.47-.94-1.29v-12.58c0-.94.18-9.53.18-11 0-.47 0-.65-.18-.65-.29 0-.47 0-.94.18-.82.18-2.7.47-4.29.82-.18 0-.29.18-.29.29v.65q0 .18.29.29c2.23.29 2.41.82 2.41 2.41v19.93c0 .65-.47.94-.82.94h-1.88c-.47 0-.47.18-.47.29v.65c0 .18 0 .29.29.29s1.88-.18 4.47-.18h4.65v-.94c-.24.06-.35-.12-.71-.12z"/><path d="m333.87 96.14v-.65c0-.65-.29-.65-.47-.82.29-.18.47-.29.47-.94 0-.82-.65-1.12-1.29-1.12h-1.76v4h.47v-1.76h1.29c.65 0 .65.29.65.82 0 .18 0 .82.18.94h.65v-.18q-.18.06-.18-.29zm-1.29-1.59h-1.29v-1.41h1.29c.29 0 .65 0 .65.65 0 .59-.29.76-.65.76z"/><path d="m332.28 91.2c-1.88 0-3.35 1.59-3.35 3.53s1.41 3.53 3.35 3.53 3.35-1.59 3.35-3.53-1.47-3.53-3.35-3.53zm0 6.53c-1.59 0-2.88-1.41-2.88-3 0-1.76 1.29-3 2.88-3s2.88 1.41 2.88 3-1.29 3-2.88 3z"/></g></svg>