<svg viewBox="0 0 388.23 94.07" xmlns="http://www.w3.org/2000/svg"><g fill="#2a2d2e"><path d="m199.99 53-14.73-37.03-14.64 36.79c3.81-.12 7.66-.19 11.6-.19 6.08 0 12 .15 17.77.44m122.24 37.55c-31.57-13.73-67.06-23.89-108.78-27.32l12.7 30.85h-9.83l-12.54-31.51c-7.01-.39-14.19-.61-21.55-.61-5.22 0-10.35.11-15.4.31l-12.66 31.81h-9.84l12.88-31.29c-44.24 2.9-81.93 13.39-115.02 27.76v-1.94c22.09-12.33 43.94-21.53 67.52-27.54v-18.93l-26.56-40.8h9.87l21.08 33.88 21.08-33.88h9.86l-26.55 40.77v16.86c13.49-2.93 27.6-4.87 42.68-5.78l21.89-53.2h4.39l22.06 53.62c14.81 1.18 28.69 3.36 42 6.55v-51.73h-21.7v-7.09h52.38v7.09h-21.69v54.06c21.4 5.98 41.47 14.67 61.74 26.12v1.93zm35.09-89.21h-52.37v7.09h21.7v63.93h8.98v-63.93h21.69zm-300.64 71.03h-8.98s0-35.04 0-35.04h-38.72v35.04h-8.98v-71.03h8.98v28.9h38.73v-28.9h8.98v71.03z"/><path d="m381.01 6.88c-.43-.25-1.12-.38-2.08-.38h-1.46v3.55h1.55c.73 0 1.27-.08 1.64-.22.67-.28 1.01-.79 1.01-1.53s-.23-1.18-.66-1.43m-1.85-1.54c1.2 0 2.09.12 2.66.34 1.01.42 1.51 1.26 1.51 2.48 0 .87-.32 1.51-.95 1.93-.34.22-.8.37-1.42.46.78.12 1.33.44 1.69.96.34.52.52 1.03.52 1.52v.71c0 .23 0 .47.03.72.02.26.04.43.09.52l.06.12h-1.6s-.02-.06-.03-.09c0-.03 0-.08-.02-.12l-.04-.32v-.78c0-1.12-.32-1.87-.92-2.23-.37-.21-1-.32-1.91-.32h-1.35v3.85h-1.73v-9.74h3.42zm-5.23-.5c-1.49 1.5-2.23 3.31-2.23 5.42s.73 3.95 2.22 5.45c1.49 1.51 3.29 2.25 5.41 2.25s3.92-.74 5.42-2.25c1.48-1.5 2.22-3.32 2.22-5.45s-.74-3.92-2.22-5.42c-1.5-1.49-3.31-2.24-5.42-2.24s-3.9.75-5.4 2.24m11.69 11.71c-1.73 1.75-3.82 2.62-6.29 2.62s-4.56-.87-6.29-2.62c-1.72-1.74-2.57-3.84-2.57-6.3s.87-4.54 2.61-6.27c1.73-1.73 3.82-2.6 6.26-2.6s4.56.87 6.29 2.6c1.74 1.72 2.61 3.82 2.61 6.27s-.87 4.55-2.61 6.3"/></g></svg>