<svg viewBox="0 0 375.94 61.02" xmlns="http://www.w3.org/2000/svg" xmlns:xlink="http://www.w3.org/1999/xlink"><mask id="a" height="61.02" maskUnits="userSpaceOnUse" width="53.44" x="103.79" y="0"><path d="m103.79 0h53.44v61.02h-53.44z" fill="#fff" fill-rule="evenodd"/></mask><mask id="b" height="22.56" maskUnits="userSpaceOnUse" width="20.88" x="355.07" y=".71"><path d="m355.07.71h20.87v22.56h-20.87z" fill="#fff" fill-rule="evenodd"/></mask><path d="m85 .98h-8.92v25.98h-32.21v-25.98h-8.84v59.06h8.84v-26.98h32.21v26.98h8.92z" fill="#2a2d2e" fill-rule="evenodd"/><path d="m0 60.04h8.83v-59.06h-8.83z" fill="#2a2d2e" fill-rule="evenodd"/><g mask="url(#a)"><path d="m148.31 31.62v22.89c-2.5 1.7-6.69 3.03-11.42 3.03-13.83 0-23.28-12.22-23.28-27.66 0-14.54 8.3-26.5 22.13-26.5 9.55 0 14.99 4.46 19 9.46h.45v-10.25c-2.86-.71-10.8-2.59-19.09-2.59-20.07 0-32.3 14.63-32.3 30.69 0 17.57 13.2 30.33 32.47 30.33 9.55 0 16.95-3.66 20.97-4.82v-24.59h-8.92z" fill="#2a2d2e" fill-rule="evenodd"/></g><g fill="#2a2d2e" fill-rule="evenodd"><path d="m163 4.95c.4 0 .61-.18.61-.51v-.02c0-.37-.22-.5-.61-.5h-.45v1.02h.45zm-1.21-1.61h1.23c.81 0 1.34.34 1.34 1.05v.02c0 .53-.3.81-.72.94l.93 1.48h-.8l-.85-1.36h-.37v1.36h-.77v-3.5zm4.12 1.79c0-1.74-1.21-2.95-2.91-2.95s-2.91 1.23-2.91 2.97 1.28 2.94 2.91 2.94 2.91-1.21 2.91-2.95zm-6.45.02c0-1.96 1.57-3.54 3.55-3.54s3.54 1.56 3.54 3.53-1.56 3.53-3.54 3.53-3.55-1.52-3.55-3.51z"/><path d="m189.08 1.04h2.86v9.94h16.88v-9.94h2.86v22.01h-2.86v-9.76h-16.88v9.76h-2.86z"/><path d="m243.74 12.09v-.25c0-4.9-4.22-8.9-11.49-8.9s-11.49 3.76-11.49 8.96v.25c0 5.3 4.74 8.93 11.58 8.93s11.39-3.7 11.39-8.99m-25.96.09v-.25c0-6.25 5.7-11.18 14.47-11.18s14.47 4.93 14.47 11.12v.25c0 6.22-5.7 11.21-14.38 11.21s-14.57-4.99-14.57-11.15"/><path d="m258.18 3.25h-9.05v-2.21h20.97v2.21h-9.06v19.8h-2.86z"/><path d="m275.52 1.04h18.54v2.21h-15.68v7.42h13.21v2.22h-13.21v7.95h16.42v2.21h-19.28z"/><path d="m300.46 1.04h2.86v19.8h14.2v2.21h-17.06z"/><path d="m321 16.34h2.8c.46 2.71 2.53 4.8 8.41 4.8 4.71 0 7.36-1.6 7.36-4.28s-1.94-3.42-7.98-4.13c-6.07-.71-9.45-2.16-9.45-6.1 0-3.39 3.54-5.88 9.33-5.88s9.39 2.03 9.98 6.07h-2.62c-.68-2.86-3.08-3.88-7.36-3.88-4.65 0-6.65 1.42-6.65 3.63 0 1.97 1.45 3.11 7.61 3.82 6.47.74 9.92 2.03 9.92 6.37 0 3.82-3.76 6.56-10.13 6.56-7.39 0-10.66-3.11-11.21-6.99"/><path d="m199.73 48.9c3.66 0 5.97-1.51 5.97-4.31v-.12c0-3.14-2.49-4.31-5.97-4.31h-7.79v8.75h7.79zm-10.66-10.93h10.47c4.9 0 9.02 1.82 9.02 6.47v.12c0 3.82-3.23 5.73-6.31 6.28l8.07 9.15h-3.45l-7.88-8.93h-7.05v8.93h-2.86v-22.02z"/><path d="m216.61 37.97h18.54v2.22h-15.68v7.42h13.21v2.21h-13.21v7.95h16.42v2.22h-19.28z"/><path d="m240.75 53.27h2.8c.46 2.71 2.53 4.8 8.41 4.8 4.71 0 7.36-1.6 7.36-4.28s-1.94-3.42-7.98-4.13c-6.07-.71-9.45-2.16-9.45-6.1 0-3.39 3.54-5.88 9.33-5.88s9.39 2.03 9.98 6.07h-2.62c-.68-2.86-3.08-3.88-7.36-3.88-4.65 0-6.65 1.42-6.65 3.63 0 1.97 1.45 3.11 7.61 3.82 6.47.74 9.92 2.03 9.92 6.37 0 3.82-3.76 6.56-10.13 6.56-7.39 0-10.66-3.11-11.21-6.99"/><path d="m293.59 49.02v-.25c0-4.9-4.22-8.9-11.49-8.9s-11.49 3.76-11.49 8.96v.25c0 5.3 4.74 8.93 11.58 8.93s11.39-3.7 11.39-8.99m-25.96.09v-.25c0-6.25 5.7-11.18 14.47-11.18s14.47 4.93 14.47 11.12v.25c0 6.22-5.7 11.21-14.38 11.21s-14.57-4.99-14.57-11.15"/><path d="m314.38 48.9c3.66 0 5.97-1.51 5.97-4.31v-.12c0-3.14-2.49-4.31-5.97-4.31h-7.79v8.75h7.79zm-10.66-10.93h10.47c4.9 0 9.02 1.82 9.02 6.47v.12c0 3.82-3.23 5.73-6.31 6.28l8.07 9.15h-3.45l-7.88-8.93h-7.05v8.93h-2.86v-22.02z"/><path d="m337.54 40.19h-9.06v-2.22h20.97v2.22h-9.05v19.8h-2.86z"/><path d="m353.46 53.27h2.8c.46 2.71 2.53 4.8 8.41 4.8 4.71 0 7.36-1.6 7.36-4.28s-1.94-3.42-7.98-4.13c-6.07-.71-9.45-2.16-9.45-6.1 0-3.39 3.54-5.88 9.33-5.88s9.39 2.03 9.98 6.07h-2.62c-.68-2.86-3.08-3.88-7.36-3.88-4.65 0-6.65 1.42-6.65 3.63 0 1.97 1.45 3.11 7.61 3.82 6.47.74 9.92 2.03 9.92 6.37 0 3.82-3.76 6.56-10.13 6.56-7.39 0-10.66-3.11-11.21-6.99"/></g><g mask="url(#b)"><path d="m363.08 10.2c3.09-1.33 4.25-2.68 4.25-4.44s-1.21-3.02-3.34-3.02c-1.96 0-3.52 1.11-3.52 3.3 0 1.66 1.13 2.96 2.61 4.16zm-.46 10.94c2.58 0 4.52-1.02 5.84-2.44l-6.35-6.5c-2.61.96-4.52 2.4-4.52 5.02 0 2.4 1.78 3.92 5.03 3.92zm7.13-1.11c-1.61 1.82-3.98 3.24-7.18 3.24-4.52 0-7.51-2.19-7.51-5.89s2.72-5.42 5.52-6.47c-1.45-1.29-2.42-2.84-2.42-4.9 0-3.39 2.77-5.3 5.89-5.3 3.34 0 5.57 2.16 5.57 5.12 0 2.19-1.72 4.32-5.09 5.64l5.35 5.42 3.47-5.21h2.37l-4.41 6.66 4.63 4.72h-3.26l-2.93-3.02z" fill="#2a2d2e" fill-rule="evenodd"/></g></svg>