<svg viewBox="0 0 243.66 119.99" xmlns="http://www.w3.org/2000/svg"><g fill="#2a2d2e"><path d="m225.22 83.22c-3.05-1.59-3.52-6.09-3.46-17.04l.07-16.77h-5.83s1.36-3.11 1.36-3.11h4.47v-7.94l10.71-3.97v11.65h4.95s-1.29 3.45-1.29 3.45h-3.66s0 29.02 0 29.02c.2 2.34 1.02 3.71 2.1 4.72h-9.42"/><path d="m66.62 109.83c-.34-.94-1.02-1.55-2.03-1.55-1.42 0-1.97.73-1.97 1.74 0 2.41 5.42 1.97 5.42 6.05 0 2.28-1.97 3.92-4.74 3.92-.95 0-2.03-.23-2.85-.77.2-.75.41-1.5.54-2.26h.34c.2 1.23 1.22 1.96 2.44 1.96 1.08 0 2.1-.62 2.1-1.85 0-2.85-5.35-1.82-5.35-6.11 0-2.05 1.42-3.74 4.13-3.74 1.29 0 2.44.48 2.78.85-.2.57-.34 1.16-.54 1.76z"/><path d="m119.69 11.5c.81 2.24 2.71 4.56 1.36 7.16-.61 2.64-3.12 4.79-5.76 5.21-2.78.25-5.35-.22-7.46-1.89-1.42-7.63 1.69-14.69 7.73-18.9z"/><path d="m130.33 34.75c-1.36 4.62-14.98 1.59-19.25-5.99 5.63.62 11.93-4.35 12.06-10.02l7.18 16.02"/><path d="m135.96 34.15c.61-.28 1.83-.9 2.17-2.24l-14.64-31.83c-1.02-.12-1.69-.21-2.98.68l15.45 33.4"/><path d="m142.53 27.24c6.24-9.45 1.02-24.97-12.47-27.14z"/><path d="m0 98.87h235.46v-1.8h-235.46z"/><path d="m76.18 113.41c0-.69-.61-1.25-1.29-1.25s-1.22.56-1.22 1.25.54 1.25 1.22 1.25 1.29-.56 1.29-1.25"/><path d="m141.18 47.59c1.97-1.65 5.42-1.69 7.66-.63.95.47 1.83 1.1 2.44 1.93l-4.34 6.72c-.54-.43-.95-.63-1.63-.98-2.17-.93-4.41-.39-5.69.79v19.62c-.07 3.4.54 6.49 2.3 8.1h-9.83c-2.1-1.57-2.58-4.09-2.78-6.29l-.07-26.09c.07-2.11-.47-3.04-1.29-4.23l10.17.04c.81.59.88 1.61 1.29 2.4l1.76-1.38"/><path d="m153.58 54.05c-.07-2.48.47-5.45-1.15-7.59h9.42c.68.47 1.02 1.26 1.22 2.01.54.66.47 1.61.68 2.4l.14 27.8c.34 1.65 1.02 3.32 2.24 4.62l-10.1.02c-3.32-3.2-2.24-8.46-2.51-13.89l.07-15.37"/><path d="m168.56 54.32c1.02-2.83 4.2-4.24 6.51-5.78 3.52-1.29 7.46-4.52 11.39-1.88 3.32 2.16 6.24 4.6 8.34 7.94.47 1.29.75 2.75 1.08 4.13 0 1.85.41 3.23.34 5.08.14 2.01.14 3.82 0 5.78-.14 3.34-1.69 6.33-4.34 8.65-3.93 3.5-8.88 7.48-14.23 4.76-4.81-2.24-10.44-6.68-10.1-12.78-.2-4.32-.41-8.06.2-12.27.2-1.22.14-2.56.81-3.62zm9.83 19.66c.47 1.74 1.36 3.86 3.46 4.09 1.22.04 2.1-.98 2.85-1.85 2.17-4.32 1.83-9.04 1.83-13.96-.68-3.65.2-8.65-3.73-10.89-1.42-.51-2.44.43-3.32 1.3-1.56 2.32-1.69 4.97-1.83 7.92-.47 4.72.07 8.63.75 13.39"/><path d="m203.19 83.22c-3.05-1.59-3.52-6.09-3.46-17.04l.07-16.77h-5.76s1.29-3.11 1.29-3.11h4.47v-7.94l10.78-3.97v11.65h4.88s-1.29 3.45-1.29 3.45h-3.59s0 29.02 0 29.02c.2 2.34 1.02 3.71 2.1 4.72h-9.49"/><path d="m105.05 50.76c-.07-2.11-.47-3.04-1.29-4.23l10.17.04c.81.59.88 1.61 1.29 2.4l1.76-1.38c1.97-1.65 5.42-1.69 7.66-.63.95.47 1.83 1.1 2.44 1.93l-4.34 6.72c-.54-.43-.95-.63-1.63-.98-2.17-.93-4.41-.39-5.69.79v19.62c-.07 3.4.54 6.49 2.3 8.1h-9.83c-2.03-1.57-2.64-3.91-2.78-6.29l-.07-26.09"/><path d="m27.99 61.08-3.66 7.62c-2.58 4.49-6.1 10-11.52 11.37-2.1.73-4 .07-6.03-.07l-6.58 10.74c.54.53 1.22.97 1.9 1.23 11.52 4.41 16.2-.33 27.52-26.03l10.78 22.89h14.3l-6.78-15.45 3.86-7.98 10.57 23.08 13.69.09-23.99-52.65-11.05 5.48 8.68 19.65-3.8 7.72-15.86-34.21-11.59 5.92 9.56 20.6"/><path d="m71.98 70.37c.27-3.82 2.37-7.39 5.9-9.32 3.52-2.17 7.59-3.03 11.25-4.92.61-.51 1.36-1.14 1.42-1.97.07-1.02-.47-1.81-1.36-2.16-5.56-1.18-10.1 2.28-14.1 5.7.47-2.51.88-5.27 2.1-7.62.54-.63.95-1.5 1.69-1.97 3.93-1.93 8.81-2.48 13.15-2.17 3.59.24 6.91 2.79 8.13 6.06.61 1.53.54 3.27.68 4.84l.07 21.32c0 1.84.88 3.58 1.97 5.07h-10.17c-1.22-1.1-1.83-2.48-2.17-4.21-2.85 2.52-8.81 6.26-12.34 3.78-3.66-1.65-7.05-7.2-6.24-12.42zm18.03-7.41c-.07-1.48-1.08-1.63-1.83-1.63-2.44.35-4.54 2.39-5.76 4.49-1.02 1.86-1.29 3.44-1.36 5.07 0 1.76-.14 3.07.61 4.41.41.87 1.22 1.26 2.1 1.49 1.56.32 2.98-.12 4.2-.94 2.91-1.61 2.37-4.84 2.44-7.71l-.41-5.17"/><path d="m168.9 113.41c0-.69-.61-1.25-1.29-1.25s-1.22.56-1.22 1.25.54 1.25 1.22 1.25 1.29-.56 1.29-1.25"/><path d="m83.57 107.54h3.8c.81 0 2.17-.03 2.91.36 1.02.54 1.49 1.34 1.49 2.55 0 1.75-1.08 2.85-2.78 3.21 1.02 1.71 2.1 3.35 3.19 5.01l.68 1.1c-.54-.04-1.08-.09-1.63-.09s-1.02.05-1.56.09l-2.17-3.74c-.27-.48-.75-1.3-1.15-1.98h-.14v5.72c-.41-.04-.88-.09-1.29-.09-.47 0-.88.05-1.36.09v-12.23zm2.64 5.74c1.9.18 2.85-.71 2.85-2.55 0-.25-.07-.52-.14-.89-.27-1.48-1.63-1.34-2.71-1.34z"/><path d="m102.34 107.54c-.07.25-.14.52-.14.77s.07.52.14.77c-1.15-.14-2.3-.28-4.13-.24v3.83h1.83c.81 0 1.56-.07 2.24-.16-.07.25-.14.52-.14.77s.07.52.14.77c-.68-.09-1.42-.16-2.24-.16h-1.83v4.52c1.83-.01 2.98-.1 4.13-.24-.07.24-.14.52-.14.77s.07.52.14.77h-6.85v-12.14h6.85"/><path d="m111.02 109.83c-.41-.94-1.08-1.55-2.1-1.55-1.36 0-1.97.73-1.97 1.74 0 2.41 5.42 1.97 5.42 6.05 0 2.28-1.9 3.92-4.68 3.92-1.02 0-2.03-.23-2.85-.77.2-.75.41-1.5.47-2.26h.34c.27 1.23 1.22 1.96 2.44 1.96 1.15 0 2.1-.62 2.1-1.85 0-2.85-5.29-1.82-5.29-6.11 0-2.05 1.36-3.74 4.13-3.74 1.22 0 2.37.48 2.78.85-.2.57-.41 1.16-.54 1.76h-.27"/><path d="m121.18 119.99c-3.93 0-6.57-2.32-6.57-6.36 0-3.54 2.58-6.41 7.05-6.41 5.08 0 6.57 3.58 6.57 6.34 0 3.48-2.64 6.43-7.05 6.43zm-3.59-5.84c0 2.31 1.02 4.77 3.73 4.77s3.93-2.74 3.93-5.7c0-2.3-1.08-4.93-3.73-4.93-2.44 0-3.93 1.87-3.93 5.86"/><path d="m131.22 107.54h3.8c.81 0 2.1-.03 2.85.36 1.02.54 1.56 1.34 1.56 2.55 0 1.75-1.15 2.85-2.78 3.21 1.02 1.71 2.1 3.35 3.19 5.01l.68 1.1c-.54-.04-1.08-.09-1.63-.09s-1.08.05-1.63.09l-2.1-3.74c-.27-.48-.75-1.3-1.15-1.98h-.14v5.72c-.47-.04-.88-.09-1.36-.09-.41 0-.88.05-1.29.09zm2.64 5.74c1.9.18 2.78-.71 2.78-2.55 0-.25 0-.52-.07-.89-.27-1.48-1.63-1.34-2.71-1.34z"/><path d="m148.09 119.76c-.41-.04-.88-.09-1.36-.09-.41 0-.88.05-1.29.09v-10.96c-1.29 0-2.37.12-3.32.25 0-.25.07-.5.07-.77s-.07-.5-.07-.75h9.15c0 .25-.07.5-.07.75 0 .26.07.52.07.77-1.02-.13-2.1-.25-3.19-.25v10.96"/><path d="m159.61 109.83c-.34-.94-1.02-1.55-2.03-1.55-1.42 0-1.97.73-1.97 1.74 0 2.41 5.42 1.97 5.42 6.05 0 2.28-1.97 3.92-4.74 3.92-.95 0-2.03-.23-2.85-.77.2-.75.41-1.5.54-2.26h.34c.2 1.23 1.22 1.96 2.44 1.96 1.08 0 2.03-.62 2.03-1.85 0-2.85-5.29-1.82-5.29-6.11 0-2.05 1.42-3.74 4.13-3.74 1.29 0 2.44.48 2.78.85-.2.57-.34 1.16-.54 1.76h-.27"/><path d="m181.51 109.83c-.41-.94-1.08-1.55-2.1-1.55-1.36 0-1.97.73-1.97 1.74 0 2.41 5.42 1.97 5.42 6.05 0 2.28-1.9 3.92-4.68 3.92-1.02 0-2.03-.23-2.85-.77.2-.75.34-1.5.47-2.26h.34c.27 1.23 1.22 1.96 2.44 1.96 1.15 0 2.1-.62 2.1-1.85 0-2.85-5.29-1.82-5.29-6.11 0-2.05 1.42-3.74 4.07-3.74 1.29 0 2.44.48 2.85.85-.2.57-.41 1.16-.54 1.76h-.27"/><path d="m186.05 107.54c.47.04.88.09 1.36.09s.88-.05 1.36-.09v5.06c0 .98-.07 2.44.14 3.37.14.87.27 1.42.88 2.05.61.54 1.29.77 2.1.77 1.63 0 2.51-.6 3.12-2.16.34-.79.34-2.81.34-3.69v-5.4c.2.04.47.05.68.05.27 0 .54-.01.75-.05v6.34c-.07 2.03 0 3.88-1.9 5.17-.95.69-2.17.94-3.39.94-2.1 0-4.47-.68-5.08-3-.2-.69-.34-1.48-.34-2.19v-7.27"/><path d="m200.96 107.54c.47.04.95.09 1.36.09.47 0 .88-.05 1.36-.09v12.23c-.47-.04-.88-.09-1.36-.09-.41 0-.88.05-1.36.09z"/><path d="m212.68 119.76c-.47-.04-.95-.09-1.36-.09-.47 0-.88.05-1.36.09v-10.96c-1.22 0-2.37.12-3.32.25.07-.25.14-.5.14-.77s-.07-.5-.14-.75h9.22c-.07.25-.14.5-.14.75 0 .26.07.52.14.77-1.08-.13-2.1-.25-3.19-.25v10.96"/><path d="m225.42 107.54c-.07.25-.07.52-.07.77s0 .52.07.77c-1.08-.14-2.3-.28-4.13-.24v3.83h1.83c.81 0 1.56-.07 2.24-.16-.07.25-.07.52-.07.77s0 .52.07.77c-.68-.09-1.42-.16-2.24-.16h-1.83v4.52c1.83-.01 3.05-.1 4.13-.24-.07.24-.07.52-.07.77s0 .52.07.77h-6.78v-12.14h6.78"/><path d="m234.1 109.83c-.34-.94-1.02-1.55-2.03-1.55-1.42 0-1.97.73-1.97 1.74 0 2.41 5.42 1.97 5.42 6.05 0 2.28-1.97 3.92-4.74 3.92-.95 0-2.03-.23-2.85-.77.2-.75.41-1.5.47-2.26h.34c.27 1.23 1.22 1.96 2.51 1.96 1.08 0 2.03-.62 2.03-1.85 0-2.85-5.29-1.82-5.29-6.11 0-2.05 1.42-3.74 4.13-3.74 1.29 0 2.44.48 2.78.85-.2.57-.34 1.16-.54 1.76h-.27"/><path d="m.34 107.54c.47.04.88.09 1.36.09.41 0 .88-.05 1.36-.09v4.83c.88.03 1.83.09 2.71.09s1.83-.05 2.71-.09v-4.83c.47.04.88.09 1.36.09.41 0 .88-.05 1.36-.09v12.23c-.47-.04-.95-.09-1.36-.09-.47 0-.88.05-1.36.09v-5.97c-.88-.03-1.83-.09-2.71-.09s-1.83.05-2.71.09v5.97c-.47-.04-.95-.09-1.36-.09-.47 0-.88.05-1.36.09v-12.23"/><path d="m20.94 119.99c-3.93 0-6.64-2.32-6.64-6.36 0-3.54 2.64-6.41 7.05-6.41 5.08 0 6.57 3.58 6.57 6.34 0 3.48-2.64 6.43-6.98 6.43zm-3.66-5.84c0 2.31 1.08 4.77 3.73 4.77s4-2.74 4-5.7c0-2.3-1.08-4.93-3.8-4.93-2.44 0-3.93 1.87-3.93 5.86"/><path d="m34.57 119.76c-.41-.04-.88-.09-1.29-.09-.47 0-.88.05-1.36.09v-10.96c-1.29 0-2.37.12-3.32.25.07-.25.07-.5.07-.77s0-.5-.07-.75h9.15c0 .25-.07.5-.07.75 0 .26.07.52.07.77-1.02-.13-2.1-.25-3.19-.25v10.96"/><path d="m47.24 107.54c0 .25-.07.52-.07.77s.07.52.07.77c-1.08-.14-2.3-.28-4.13-.24v3.83h1.9c.81 0 1.49-.07 2.17-.16-.07.25-.07.52-.07.77s0 .52.07.77c-.68-.09-1.36-.16-2.17-.16h-1.9v4.52c1.83-.01 3.05-.1 4.13-.24 0 .24-.07.52-.07.77s.07.52.07.77h-6.78v-12.14h6.78"/><path d="m53.34 118.39c1.56 0 2.85-.12 4.07-.24-.07.24-.14.52-.14.77s.07.52.14.77h-6.78v-12.14c.47.04.88.09 1.36.09s.88-.05 1.36-.09v10.85"/><path d="m235.93 80.03c0-2.18 1.76-3.79 3.86-3.79s3.86 1.61 3.86 3.79-1.76 3.8-3.86 3.8-3.86-1.61-3.86-3.8zm3.86 3.17c1.76 0 3.12-1.34 3.12-3.17s-1.36-3.16-3.12-3.16-3.12 1.36-3.12 3.16 1.42 3.17 3.12 3.17zm-.81-.98h-.61v-4.38h1.63c1.02 0 1.56.39 1.56 1.25 0 .79-.47 1.13-1.15 1.21l1.29 1.92h-.75l-1.15-1.9h-.81v1.9zm.81-2.46c.54 0 1.08-.04 1.08-.71 0-.54-.47-.64-.95-.64h-.95v1.36h.81"/></g></svg>